<svg xmlns="http://www.w3.org/2000/svg" xmlns:xlink="http://www.w3.org/1999/xlink" width="500" zoomAndPan="magnify" viewBox="0 0 375 374.999991" height="500" preserveAspectRatio="xMidYMid meet" version="1.0"><defs><g/><clipPath id="66d720de88"><path d="M 41.453125 41.453125 L 333.546875 41.453125 L 333.546875 333.546875 L 41.453125 333.546875 Z M 41.453125 41.453125 " clip-rule="nonzero"/></clipPath><clipPath id="1371f73e92"><path d="M 187.5 41.453125 C 106.839844 41.453125 41.453125 106.839844 41.453125 187.5 C 41.453125 268.160156 106.839844 333.546875 187.5 333.546875 C 268.160156 333.546875 333.546875 268.160156 333.546875 187.5 C 333.546875 106.839844 268.160156 41.453125 187.5 41.453125 Z M 187.5 41.453125 " clip-rule="nonzero"/></clipPath><clipPath id="e233a38a4c"><path d="M 88.894531 88.4375 L 286.144531 88.4375 L 286.144531 286.4375 L 88.894531 286.4375 Z M 88.894531 88.4375 " clip-rule="nonzero"/></clipPath><clipPath id="3ddbd24a5e"><path d="M 114 114 L 259 114 L 259 259.84375 L 114 259.84375 Z M 114 114 " clip-rule="nonzero"/></clipPath><clipPath id="c7645ac3ea"><path d="M 202 227 L 222 227 L 222 247 L 202 247 Z M 202 227 " clip-rule="nonzero"/></clipPath><clipPath id="44544d9450"><path d="M 155.574219 111.632812 L 233.203125 119.261719 L 219.632812 257.347656 L 142.007812 249.71875 Z M 155.574219 111.632812 " clip-rule="nonzero"/></clipPath><clipPath id="9ff704b091"><path d="M 155.574219 111.632812 L 233.203125 119.261719 L 219.632812 257.347656 L 142.007812 249.71875 Z M 155.574219 111.632812 " clip-rule="nonzero"/></clipPath><clipPath id="13094c6686"><path d="M 203.296875 226.359375 L 222.332031 228.226562 L 220.492188 246.941406 L 201.457031 245.074219 Z M 203.296875 226.359375 " clip-rule="nonzero"/></clipPath><clipPath id="7625768d87"><path d="M 203.296875 226.359375 L 222.300781 228.226562 L 220.460938 246.941406 L 201.457031 245.074219 Z M 203.296875 226.359375 " clip-rule="nonzero"/></clipPath><clipPath id="7f1919f902"><path d="M 142 115 L 219 115 L 219 255 L 142 255 Z M 142 115 " clip-rule="nonzero"/></clipPath><clipPath id="73e4684111"><path d="M 155.574219 111.632812 L 233.203125 119.261719 L 219.632812 257.347656 L 142.007812 249.71875 Z M 155.574219 111.632812 " clip-rule="nonzero"/></clipPath><clipPath id="0e62dd7468"><path d="M 155.574219 111.632812 L 233.203125 119.261719 L 219.632812 257.347656 L 142.007812 249.71875 Z M 155.574219 111.632812 " clip-rule="nonzero"/></clipPath><clipPath id="54438a8ac6"><path d="M 155.582031 111.636719 L 223.539062 118.3125 L 209.941406 256.71875 L 141.980469 250.042969 Z M 155.582031 111.636719 " clip-rule="nonzero"/></clipPath><clipPath id="f9fd9086a3"><path d="M 155.582031 111.636719 L 223.539062 118.3125 L 209.941406 256.710938 L 141.984375 250.035156 Z M 155.582031 111.636719 " clip-rule="nonzero"/></clipPath><clipPath id="f1857ba9bb"><path d="M 62.0625 127.867188 L 89 127.867188 L 89 153.367188 L 62.0625 153.367188 Z M 62.0625 127.867188 " clip-rule="nonzero"/></clipPath><clipPath id="748c2aafad"><path d="M 48.644531 176.617188 L 75.644531 176.617188 L 75.644531 202.117188 L 48.644531 202.117188 Z M 48.644531 176.617188 " clip-rule="nonzero"/></clipPath><clipPath id="3ea5768798"><path d="M 286.105469 127.867188 L 313 127.867188 L 313 153.367188 L 286.105469 153.367188 Z M 286.105469 127.867188 " clip-rule="nonzero"/></clipPath><clipPath id="ddab181628"><path d="M 299.605469 176.617188 L 326.605469 176.617188 L 326.605469 202.117188 L 299.605469 202.117188 Z M 299.605469 176.617188 " clip-rule="nonzero"/></clipPath></defs><g clip-path="url(#66d720de88)"><g clip-path="url(#1371f73e92)"><path fill="#002c4b" d="M 41.453125 41.453125 L 333.546875 41.453125 L 333.546875 333.546875 L 41.453125 333.546875 Z M 41.453125 41.453125 " fill-opacity="1" fill-rule="nonzero"/></g></g><g clip-path="url(#e233a38a4c)"><path fill="#30493f" d="M 187.492188 88.449219 C 133.070312 88.449219 88.882812 132.835938 88.882812 187.511719 C 88.882812 242.183594 133.070312 286.570312 187.492188 286.570312 C 241.914062 286.570312 286.097656 242.183594 286.097656 187.511719 C 286.097656 132.835938 241.914062 88.449219 187.492188 88.449219 Z M 187.492188 90.96875 C 240.523438 90.96875 283.578125 134.230469 283.578125 187.511719 C 283.578125 240.789062 240.523438 284.046875 187.492188 284.046875 C 134.460938 284.046875 91.40625 240.789062 91.40625 187.511719 C 91.40625 134.230469 134.460938 90.96875 187.492188 90.96875 Z M 187.492188 96.492188 C 137.492188 96.492188 96.890625 137.273438 96.890625 187.511719 C 96.890625 237.742188 137.492188 278.523438 187.492188 278.523438 C 237.492188 278.523438 278.089844 237.742188 278.089844 187.511719 C 278.089844 137.273438 237.492188 96.492188 187.492188 96.492188 Z M 187.492188 97.753906 C 138.183594 97.753906 98.152344 137.972656 98.152344 187.511719 C 98.152344 237.042969 138.183594 277.261719 187.492188 277.261719 C 236.796875 277.261719 276.828125 237.042969 276.828125 187.511719 C 276.828125 137.972656 236.796875 97.753906 187.492188 97.753906 Z M 187.492188 97.753906 " fill-opacity="1" fill-rule="evenodd"/></g><path fill="#031d15" d="M 187.492188 89.707031 C 133.761719 89.707031 90.144531 133.53125 90.144531 187.511719 C 90.144531 241.488281 133.761719 285.308594 187.492188 285.308594 C 241.21875 285.308594 284.835938 241.488281 284.835938 187.511719 C 284.835938 133.53125 241.21875 89.707031 187.492188 89.707031 Z M 108.179688 146.179688 C 101.777344 158.550781 98.152344 172.609375 98.152344 187.511719 C 98.152344 216.230469 111.613281 241.820312 132.535156 258.253906 L 132.5625 258.273438 L 132.578125 258.289062 C 141.203125 265.050781 151.085938 270.261719 161.816406 273.496094 L 161.992188 273.546875 L 162.085938 273.578125 C 164.167969 274.195312 166.273438 274.738281 168.410156 275.207031 C 169.207031 275.382812 170.011719 275.546875 170.816406 275.699219 C 171.210938 275.773438 171.601562 275.847656 171.996094 275.917969 C 172.769531 276.050781 173.546875 276.175781 174.328125 276.292969 C 174.492188 276.320312 174.660156 276.34375 174.824219 276.367188 C 175.71875 276.496094 176.617188 276.609375 177.519531 276.710938 C 177.628906 276.722656 177.734375 276.734375 177.84375 276.746094 C 178.015625 276.761719 178.1875 276.78125 178.363281 276.800781 C 178.546875 276.816406 178.726562 276.835938 178.90625 276.851562 C 180.980469 277.050781 183.074219 277.179688 185.1875 277.234375 C 185.332031 277.234375 185.476562 277.242188 185.621094 277.242188 L 185.761719 277.246094 C 186.042969 277.25 186.320312 277.257812 186.601562 277.261719 C 186.902344 277.261719 187.195312 277.261719 187.492188 277.261719 C 187.789062 277.261719 188.082031 277.261719 188.382812 277.261719 C 188.664062 277.257812 188.941406 277.25 189.222656 277.246094 C 189.222656 277.246094 189.253906 277.246094 189.253906 277.246094 C 189.4375 277.242188 189.617188 277.238281 189.792969 277.234375 C 191.96875 277.179688 194.121094 277.046875 196.246094 276.835938 L 196.335938 276.828125 L 196.4375 276.816406 C 196.621094 276.800781 196.796875 276.78125 196.976562 276.761719 L 197.183594 276.738281 L 197.316406 276.722656 C 198.273438 276.617188 199.21875 276.5 200.15625 276.367188 C 200.339844 276.339844 200.519531 276.3125 200.695312 276.289062 C 201.476562 276.171875 202.25 276.042969 203.023438 275.910156 C 203.398438 275.84375 203.777344 275.773438 204.15625 275.703125 C 245.511719 267.847656 276.828125 231.324219 276.828125 187.511719 C 276.828125 137.972656 236.796875 97.753906 187.492188 97.753906 C 164.707031 97.753906 143.902344 106.34375 128.113281 120.472656 L 128.035156 120.542969 L 127.835938 120.722656 C 127.753906 120.796875 127.671875 120.871094 127.585938 120.945312 C 126.878906 121.589844 126.183594 122.242188 125.496094 122.910156 C 125.390625 123.011719 125.28125 123.117188 125.175781 123.222656 C 122.492188 125.847656 119.972656 128.640625 117.636719 131.585938 C 117.367188 131.921875 117.097656 132.261719 116.839844 132.601562 L 116.722656 132.75 L 116.5625 132.960938 L 116.496094 133.046875 C 116.136719 133.519531 115.78125 133.992188 115.433594 134.472656 C 115.273438 134.691406 115.117188 134.90625 114.960938 135.125 C 114.789062 135.363281 114.625 135.597656 114.457031 135.835938 L 114.335938 136.007812 C 114.109375 136.332031 113.882812 136.660156 113.660156 136.992188 L 113.570312 137.117188 L 113.480469 137.25 C 113.410156 137.355469 113.335938 137.460938 113.269531 137.570312 L 113.121094 137.789062 L 112.972656 138.015625 L 112.863281 138.183594 C 112.773438 138.320312 112.683594 138.457031 112.597656 138.589844 L 112.53125 138.695312 C 112.371094 138.9375 112.21875 139.179688 112.0625 139.421875 L 111.949219 139.605469 L 111.804688 139.828125 C 110.527344 141.867188 109.332031 143.960938 108.21875 146.105469 C 108.21875 146.105469 108.179688 146.179688 108.179688 146.179688 Z M 108.179688 146.179688 " fill-opacity="1" fill-rule="evenodd"/><path fill="#ff821c" d="M 187.492188 96.21875 C 137.335938 96.21875 96.617188 137.125 96.617188 187.511719 C 96.617188 237.898438 137.335938 278.800781 187.492188 278.800781 C 237.644531 278.800781 278.367188 237.898438 278.367188 187.511719 C 278.367188 137.125 237.644531 96.21875 187.492188 96.21875 Z M 187.492188 115.949219 C 226.800781 115.949219 258.710938 148.019531 258.710938 187.511719 C 258.710938 227.003906 226.800781 259.066406 187.492188 259.066406 C 148.183594 259.066406 116.273438 227.003906 116.273438 187.511719 C 116.273438 148.019531 148.183594 115.949219 187.492188 115.949219 Z M 187.492188 115.949219 " fill-opacity="1" fill-rule="evenodd"/><path fill="#4f6a66" d="M 189.574219 275.707031 C 189.574219 275.707031 189.417969 272.578125 191.242188 270.5 C 193.066406 268.429688 196.1875 268.191406 196.1875 268.191406 C 196.1875 268.191406 196.351562 271.320312 194.523438 273.390625 C 192.695312 275.46875 189.574219 275.707031 189.574219 275.707031 Z M 179.144531 275.335938 C 179.144531 275.335938 179.351562 272.207031 181.410156 270.367188 C 183.46875 268.519531 186.597656 268.652344 186.597656 268.652344 C 186.597656 268.652344 186.390625 271.777344 184.332031 273.621094 C 182.273438 275.464844 179.144531 275.335938 179.144531 275.335938 Z M 199.976562 274.84375 C 199.976562 274.84375 199.449219 271.753906 201.015625 269.480469 C 202.585938 267.203125 205.65625 266.597656 205.65625 266.597656 C 205.65625 266.597656 206.1875 269.683594 204.617188 271.960938 C 203.050781 274.238281 199.976562 274.84375 199.976562 274.84375 Z M 168.832031 273.734375 C 168.832031 273.734375 169.410156 270.65625 171.667969 269.066406 C 173.929688 267.476562 177.023438 267.976562 177.023438 267.976562 C 177.023438 267.976562 176.445312 271.058594 174.183594 272.648438 C 171.921875 274.234375 168.832031 273.734375 168.832031 273.734375 Z M 210.203125 272.757812 C 210.203125 272.757812 209.316406 269.753906 210.601562 267.308594 C 211.890625 264.863281 214.871094 263.898438 214.871094 263.898438 C 214.871094 263.898438 215.757812 266.902344 214.472656 269.347656 C 213.183594 271.792969 210.203125 272.757812 210.203125 272.757812 Z M 158.777344 270.925781 C 158.777344 270.925781 159.714844 267.9375 162.148438 266.628906 C 164.582031 265.316406 167.59375 266.179688 167.59375 266.179688 C 167.59375 266.179688 166.65625 269.171875 164.222656 270.476562 C 161.789062 271.789062 158.777344 270.925781 158.777344 270.925781 Z M 220.113281 269.480469 C 220.113281 269.480469 218.875 266.601562 219.867188 264.019531 C 220.855469 261.441406 223.699219 260.128906 223.699219 260.128906 C 223.699219 260.128906 224.9375 263.007812 223.949219 265.585938 C 222.957031 268.167969 220.113281 269.480469 220.113281 269.480469 Z M 179.917969 261.195312 C 179.917969 261.195312 179.785156 264.324219 181.628906 266.382812 C 183.472656 268.441406 186.597656 268.652344 186.597656 268.652344 C 186.597656 268.652344 186.730469 265.519531 184.890625 263.464844 C 183.042969 261.40625 179.917969 261.195312 179.917969 261.195312 Z M 188.671875 261.574219 C 188.671875 261.574219 188.910156 264.699219 190.988281 266.523438 C 193.058594 268.351562 196.1875 268.191406 196.1875 268.191406 C 196.1875 268.191406 195.949219 265.066406 193.875 263.238281 C 191.800781 261.414062 188.671875 261.574219 188.671875 261.574219 Z M 171.265625 259.785156 C 171.265625 259.785156 170.765625 262.878906 172.355469 265.140625 C 173.945312 267.398438 177.023438 267.976562 177.023438 267.976562 C 177.023438 267.976562 177.523438 264.886719 175.9375 262.625 C 174.347656 260.363281 171.265625 259.785156 171.265625 259.785156 Z M 149.125 266.953125 C 149.125 266.953125 150.410156 264.09375 152.980469 263.082031 C 155.550781 262.066406 158.441406 263.277344 158.441406 263.277344 C 158.441406 263.277344 157.15625 266.136719 154.585938 267.148438 C 152.015625 268.164062 149.125 266.953125 149.125 266.953125 Z M 197.410156 260.917969 C 197.410156 260.917969 198.015625 263.992188 200.292969 265.558594 C 202.570312 267.128906 205.65625 266.597656 205.65625 266.597656 C 205.65625 266.597656 205.050781 263.523438 202.773438 261.957031 C 200.5 260.386719 197.410156 260.917969 197.410156 260.917969 Z M 162.84375 257.363281 C 162.84375 257.363281 161.984375 260.375 163.292969 262.808594 C 164.601562 265.242188 167.59375 266.179688 167.59375 266.179688 C 167.59375 266.179688 168.453125 263.164062 167.144531 260.734375 C 165.835938 258.300781 162.84375 257.363281 162.84375 257.363281 Z M 229.566406 265.050781 C 229.566406 265.050781 227.996094 262.339844 228.675781 259.660156 C 229.351562 256.984375 232.023438 255.34375 232.023438 255.34375 C 232.023438 255.34375 233.59375 258.058594 232.914062 260.734375 C 232.234375 263.414062 229.566406 265.050781 229.566406 265.050781 Z M 206.011719 259.230469 C 206.011719 259.230469 206.976562 262.210938 209.421875 263.5 C 211.867188 264.789062 214.871094 263.898438 214.871094 263.898438 C 214.871094 263.898438 213.90625 260.917969 211.460938 259.632812 C 209.015625 258.339844 206.011719 259.230469 206.011719 259.230469 Z M 154.765625 253.964844 C 154.765625 253.964844 153.554688 256.851562 154.570312 259.425781 C 155.582031 261.996094 158.441406 263.277344 158.441406 263.277344 C 158.441406 263.277344 159.652344 260.390625 158.640625 257.816406 C 157.625 255.25 154.765625 253.964844 154.765625 253.964844 Z M 140.011719 261.863281 C 140.011719 261.863281 141.625 259.179688 144.296875 258.476562 C 146.96875 257.773438 149.695312 259.316406 149.695312 259.316406 C 149.695312 259.316406 148.085938 262.003906 145.410156 262.707031 C 142.738281 263.410156 140.011719 261.863281 140.011719 261.863281 Z M 214.355469 256.542969 C 214.355469 256.542969 215.664062 259.390625 218.242188 260.378906 C 220.820312 261.367188 223.699219 260.128906 223.699219 260.128906 C 223.699219 260.128906 222.390625 257.285156 219.8125 256.296875 C 217.230469 255.304688 214.355469 256.542969 214.355469 256.542969 Z M 238.425781 259.539062 C 238.425781 259.539062 236.550781 257.035156 236.90625 254.292969 C 237.265625 251.554688 239.726562 249.613281 239.726562 249.613281 C 239.726562 249.613281 241.601562 252.121094 241.242188 254.859375 C 240.886719 257.601562 238.425781 259.539062 238.425781 259.539062 Z M 147.148438 249.632812 C 147.148438 249.632812 145.601562 252.363281 146.308594 255.03125 C 147.007812 257.703125 149.695312 259.316406 149.695312 259.316406 C 149.695312 259.316406 151.242188 256.59375 150.539062 253.921875 C 149.832031 251.246094 147.148438 249.632812 147.148438 249.632812 Z M 131.5625 255.734375 C 131.5625 255.734375 133.480469 253.261719 136.21875 252.878906 C 138.957031 252.496094 141.480469 254.351562 141.480469 254.351562 C 141.480469 254.351562 139.5625 256.828125 136.824219 257.210938 C 134.085938 257.59375 131.5625 255.734375 131.5625 255.734375 Z M 222.316406 252.886719 C 222.316406 252.886719 223.953125 255.558594 226.632812 256.234375 C 229.3125 256.917969 232.023438 255.34375 232.023438 255.34375 C 232.023438 255.34375 230.386719 252.675781 227.707031 251.996094 C 225.027344 251.316406 222.316406 252.886719 222.316406 252.886719 Z M 140.09375 244.433594 C 140.09375 244.433594 138.238281 246.960938 138.621094 249.695312 C 139 252.429688 141.480469 254.351562 141.480469 254.351562 C 141.480469 254.351562 143.335938 251.824219 142.953125 249.089844 C 142.570312 246.355469 140.09375 244.433594 140.09375 244.433594 Z M 246.578125 253.019531 C 246.578125 253.019531 244.414062 250.75 244.449219 247.992188 C 244.480469 245.226562 246.691406 243.007812 246.691406 243.007812 C 246.691406 243.007812 248.855469 245.277344 248.824219 248.039062 C 248.792969 250.804688 246.578125 253.019531 246.578125 253.019531 Z M 229.796875 248.316406 C 229.796875 248.316406 231.738281 250.777344 234.476562 251.132812 C 237.214844 251.488281 239.726562 249.613281 239.726562 249.613281 C 239.726562 249.613281 237.78125 247.152344 235.042969 246.796875 C 232.304688 246.4375 229.796875 248.316406 229.796875 248.316406 Z M 123.898438 248.652344 C 123.898438 248.652344 126.09375 246.421875 128.855469 246.367188 C 131.621094 246.308594 133.90625 248.449219 133.90625 248.449219 C 133.90625 248.449219 131.707031 250.683594 128.949219 250.738281 C 126.183594 250.792969 123.898438 248.652344 123.898438 248.652344 Z M 133.703125 238.441406 C 133.703125 238.441406 131.558594 240.726562 131.617188 243.488281 C 131.675781 246.25 133.90625 248.449219 133.90625 248.449219 C 133.90625 248.449219 136.046875 246.160156 135.992188 243.398438 C 135.9375 240.636719 133.703125 238.441406 133.703125 238.441406 Z M 253.902344 245.585938 C 253.902344 245.585938 251.488281 243.585938 251.191406 240.839844 C 250.898438 238.089844 252.832031 235.628906 252.832031 235.628906 C 252.832031 235.628906 255.246094 237.625 255.539062 240.375 C 255.835938 243.117188 253.902344 245.585938 253.902344 245.585938 Z M 236.679688 242.894531 C 236.679688 242.894531 238.898438 245.105469 241.660156 245.136719 C 244.425781 245.171875 246.691406 243.007812 246.691406 243.007812 C 246.691406 243.007812 244.472656 240.796875 241.710938 240.765625 C 238.949219 240.734375 236.679688 242.894531 236.679688 242.894531 Z M 117.121094 240.714844 C 117.121094 240.714844 119.566406 238.757812 122.316406 239.027344 C 125.066406 239.300781 127.085938 241.691406 127.085938 241.691406 C 127.085938 241.691406 124.636719 243.652344 121.890625 243.382812 C 119.140625 243.113281 117.121094 240.714844 117.121094 240.714844 Z M 128.0625 231.730469 C 128.0625 231.730469 125.667969 233.75 125.398438 236.496094 C 125.128906 239.246094 127.085938 241.691406 127.085938 241.691406 C 127.085938 241.691406 129.480469 239.675781 129.75 236.925781 C 130.023438 234.175781 128.0625 231.730469 128.0625 231.730469 Z M 242.878906 236.695312 C 242.878906 236.695312 245.34375 238.632812 248.089844 238.335938 C 250.835938 238.042969 252.832031 235.628906 252.832031 235.628906 C 252.832031 235.628906 250.367188 233.695312 247.621094 233.988281 C 244.875 234.285156 242.878906 236.695312 242.878906 236.695312 Z M 260.296875 237.335938 C 260.296875 237.335938 257.664062 235.636719 257.046875 232.945312 C 256.429688 230.25 258.058594 227.574219 258.058594 227.574219 C 258.058594 227.574219 260.691406 229.273438 261.308594 231.964844 C 261.925781 234.660156 260.296875 237.335938 260.296875 237.335938 Z M 111.328125 232.03125 C 111.328125 232.03125 113.988281 230.378906 116.6875 230.96875 C 119.386719 231.5625 121.109375 234.179688 121.109375 234.179688 C 121.109375 234.179688 118.449219 235.835938 115.75 235.242188 C 113.050781 234.652344 111.328125 232.03125 111.328125 232.03125 Z M 123.257812 224.398438 C 123.257812 224.398438 120.640625 226.121094 120.046875 228.820312 C 119.453125 231.519531 121.109375 234.179688 121.109375 234.179688 C 121.109375 234.179688 123.726562 232.460938 124.320312 229.761719 C 124.910156 227.058594 123.257812 224.398438 123.257812 224.398438 Z M 248.296875 229.8125 C 248.296875 229.8125 250.972656 231.441406 253.667969 230.824219 C 256.359375 230.207031 258.058594 227.574219 258.058594 227.574219 C 258.058594 227.574219 255.382812 225.945312 252.691406 226.5625 C 249.996094 227.179688 248.296875 229.8125 248.296875 229.8125 Z M 265.671875 228.386719 C 265.671875 228.386719 262.855469 227.011719 261.921875 224.414062 C 260.992188 221.808594 262.296875 218.957031 262.296875 218.957031 C 262.296875 218.957031 265.109375 220.335938 266.042969 222.933594 C 266.976562 225.539062 265.671875 228.386719 265.671875 228.386719 Z M 106.605469 222.726562 C 106.605469 222.726562 109.441406 221.398438 112.050781 222.304688 C 114.660156 223.210938 116.0625 226.011719 116.0625 226.011719 C 116.0625 226.011719 113.226562 227.34375 110.613281 226.4375 C 108.003906 225.527344 106.605469 222.726562 106.605469 222.726562 Z M 119.351562 216.554688 C 119.351562 216.554688 116.546875 217.957031 115.640625 220.566406 C 114.734375 223.175781 116.0625 226.011719 116.0625 226.011719 C 116.0625 226.011719 118.863281 224.613281 119.773438 222.003906 C 120.679688 219.394531 119.351562 216.554688 119.351562 216.554688 Z M 252.867188 222.335938 C 252.867188 222.335938 255.71875 223.636719 258.320312 222.707031 C 260.921875 221.777344 262.296875 218.957031 262.296875 218.957031 C 262.296875 218.957031 259.449219 217.65625 256.84375 218.589844 C 254.246094 219.519531 252.867188 222.335938 252.867188 222.335938 Z M 269.953125 218.867188 C 269.953125 218.867188 266.992188 217.835938 265.761719 215.363281 C 264.53125 212.886719 265.488281 209.90625 265.488281 209.90625 C 265.488281 209.90625 268.445312 210.9375 269.675781 213.410156 C 270.910156 215.882812 269.953125 218.867188 269.953125 218.867188 Z M 103.011719 212.925781 C 103.011719 212.925781 105.984375 211.941406 108.472656 213.152344 C 110.953125 214.363281 112.015625 217.308594 112.015625 217.308594 C 112.015625 217.308594 109.039062 218.292969 106.554688 217.085938 C 104.070312 215.875 103.011719 212.925781 103.011719 212.925781 Z M 116.398438 208.304688 C 116.398438 208.304688 113.445312 209.363281 112.238281 211.847656 C 111.027344 214.335938 112.015625 217.308594 112.015625 217.308594 C 112.015625 217.308594 114.960938 216.25 116.171875 213.765625 C 117.378906 211.28125 116.398438 208.304688 116.398438 208.304688 Z M 256.523438 214.371094 C 256.523438 214.371094 259.507812 215.328125 261.980469 214.09375 C 264.453125 212.863281 265.488281 209.90625 265.488281 209.90625 C 265.488281 209.90625 262.503906 208.945312 260.03125 210.179688 C 257.554688 211.410156 256.523438 214.371094 256.523438 214.371094 Z M 273.078125 208.910156 C 273.078125 208.910156 270.019531 208.234375 268.503906 205.921875 C 266.988281 203.613281 267.585938 200.535156 267.585938 200.535156 C 267.585938 200.535156 270.644531 201.214844 272.164062 203.523438 C 273.675781 205.835938 273.078125 208.910156 273.078125 208.910156 Z M 100.597656 202.769531 C 100.597656 202.769531 103.671875 202.144531 105.996094 203.636719 C 108.320312 205.132812 109.023438 208.1875 109.023438 208.1875 C 109.023438 208.1875 105.953125 208.8125 103.628906 207.320312 C 101.304688 205.824219 100.597656 202.769531 100.597656 202.769531 Z M 114.4375 199.765625 C 114.4375 199.765625 111.386719 200.46875 109.890625 202.792969 C 108.394531 205.117188 109.023438 208.1875 109.023438 208.1875 C 109.023438 208.1875 112.074219 207.480469 113.570312 205.15625 C 115.066406 202.832031 114.4375 199.765625 114.4375 199.765625 Z M 259.214844 206.03125 C 259.214844 206.03125 262.289062 206.628906 264.597656 205.113281 C 266.910156 203.597656 267.585938 200.535156 267.585938 200.535156 C 267.585938 200.535156 264.511719 199.9375 262.203125 201.453125 C 259.890625 202.96875 259.214844 206.03125 259.214844 206.03125 Z M 99.40625 192.402344 C 99.40625 192.402344 102.527344 192.140625 104.660156 193.898438 C 106.792969 195.65625 107.128906 198.773438 107.128906 198.773438 C 107.128906 198.773438 104.007812 199.03125 101.875 197.273438 C 99.746094 195.515625 99.40625 192.402344 99.40625 192.402344 Z M 113.5 191.050781 C 113.5 191.050781 110.386719 191.386719 108.628906 193.519531 C 106.871094 195.652344 107.128906 198.773438 107.128906 198.773438 C 107.128906 198.773438 110.246094 198.4375 112.003906 196.300781 C 113.761719 194.171875 113.5 191.050781 113.5 191.050781 Z M 275.007812 198.652344 C 275.007812 198.652344 271.890625 198.34375 270.109375 196.226562 C 268.332031 194.113281 268.5625 190.988281 268.5625 190.988281 C 268.5625 190.988281 271.679688 191.296875 273.460938 193.414062 C 275.238281 195.527344 275.007812 198.652344 275.007812 198.652344 Z M 260.898438 197.429688 C 260.898438 197.429688 264.023438 197.660156 266.140625 195.882812 C 268.253906 194.105469 268.5625 190.988281 268.5625 190.988281 C 268.5625 190.988281 265.441406 190.753906 263.324219 192.53125 C 261.210938 194.3125 260.898438 197.429688 260.898438 197.429688 Z M 113.601562 182.285156 C 113.601562 182.285156 110.46875 182.253906 108.472656 184.164062 C 106.472656 186.074219 106.363281 189.203125 106.363281 189.203125 C 106.363281 189.203125 109.492188 189.234375 111.492188 187.324219 C 113.488281 185.417969 113.601562 182.285156 113.601562 182.285156 Z M 99.445312 181.964844 C 99.445312 181.964844 102.574219 182.074219 104.484375 184.074219 C 106.394531 186.070312 106.363281 189.203125 106.363281 189.203125 C 106.363281 189.203125 103.230469 189.09375 101.324219 187.097656 C 99.414062 185.097656 99.445312 181.964844 99.445312 181.964844 Z M 261.558594 188.6875 C 261.558594 188.6875 264.6875 188.546875 266.578125 186.535156 C 268.46875 184.519531 268.40625 181.386719 268.40625 181.386719 C 268.40625 181.386719 265.277344 181.527344 263.386719 183.542969 C 261.496094 185.554688 261.558594 188.6875 261.558594 188.6875 Z M 275.710938 188.238281 C 275.710938 188.238281 272.578125 188.296875 270.5625 186.410156 C 268.546875 184.519531 268.40625 181.386719 268.40625 181.386719 C 268.40625 181.386719 271.542969 181.328125 273.554688 183.21875 C 275.570312 185.109375 275.710938 188.238281 275.710938 188.238281 Z M 261.179688 179.9375 C 261.179688 179.9375 264.269531 179.425781 265.910156 177.203125 C 267.546875 174.976562 267.117188 171.875 267.117188 171.875 C 267.117188 171.875 264.027344 172.382812 262.386719 174.605469 C 260.75 176.832031 261.179688 179.9375 261.179688 179.9375 Z M 114.734375 173.597656 C 114.734375 173.597656 111.628906 173.195312 109.417969 174.855469 C 107.207031 176.515625 106.730469 179.613281 106.730469 179.613281 C 106.730469 179.613281 109.835938 180.011719 112.046875 178.351562 C 114.253906 176.695312 114.734375 173.597656 114.734375 173.597656 Z M 100.714844 171.605469 C 100.714844 171.605469 103.808594 172.085938 105.472656 174.292969 C 107.128906 176.503906 106.730469 179.613281 106.730469 179.613281 C 106.730469 179.613281 103.632812 179.128906 101.972656 176.921875 C 100.316406 174.710938 100.714844 171.605469 100.714844 171.605469 Z M 275.179688 177.8125 C 275.179688 177.8125 272.074219 178.242188 269.851562 176.601562 C 267.625 174.964844 267.117188 171.875 267.117188 171.875 C 267.117188 171.875 270.222656 171.441406 272.445312 173.082031 C 274.671875 174.722656 275.179688 177.8125 275.179688 177.8125 Z M 259.769531 171.28125 C 259.769531 171.28125 262.777344 170.414062 264.140625 168.011719 C 265.507812 165.613281 264.714844 162.578125 264.714844 162.578125 C 264.714844 162.578125 261.707031 163.449219 260.335938 165.851562 C 258.972656 168.253906 259.769531 171.28125 259.769531 171.28125 Z M 116.886719 165.101562 C 116.886719 165.101562 113.847656 164.335938 111.457031 165.722656 C 109.070312 167.109375 108.230469 170.125 108.230469 170.125 C 108.230469 170.125 111.265625 170.890625 113.65625 169.507812 C 116.046875 168.121094 116.886719 165.101562 116.886719 165.101562 Z M 103.203125 161.46875 C 103.203125 161.46875 106.21875 162.308594 107.605469 164.699219 C 108.996094 167.089844 108.230469 170.125 108.230469 170.125 C 108.230469 170.125 105.207031 169.285156 103.824219 166.894531 C 102.4375 164.507812 103.203125 161.46875 103.203125 161.46875 Z M 273.421875 167.527344 C 273.421875 167.527344 270.390625 168.320312 267.984375 166.957031 C 265.582031 165.589844 264.714844 162.578125 264.714844 162.578125 C 264.714844 162.578125 267.746094 161.785156 270.148438 163.152344 C 272.550781 164.515625 273.421875 167.527344 273.421875 167.527344 Z M 257.34375 162.863281 C 257.34375 162.863281 260.230469 161.644531 261.304688 159.09375 C 262.375 156.550781 261.230469 153.632812 261.230469 153.632812 C 261.230469 153.632812 258.34375 154.851562 257.273438 157.402344 C 256.199219 159.945312 257.34375 162.863281 257.34375 162.863281 Z M 120.027344 156.917969 C 120.027344 156.917969 117.101562 155.800781 114.5625 156.894531 C 112.027344 157.992188 110.835938 160.886719 110.835938 160.886719 C 110.835938 160.886719 113.761719 162.007812 116.296875 160.910156 C 118.835938 159.816406 120.027344 156.917969 120.027344 156.917969 Z M 106.867188 151.695312 C 106.867188 151.695312 109.761719 152.886719 110.859375 155.425781 C 111.953125 157.960938 110.835938 160.886719 110.835938 160.886719 C 110.835938 160.886719 107.9375 159.695312 106.84375 157.160156 C 105.746094 154.621094 106.867188 151.695312 106.867188 151.695312 Z M 270.457031 157.519531 C 270.457031 157.519531 267.542969 158.664062 264.996094 157.589844 C 262.449219 156.519531 261.230469 153.632812 261.230469 153.632812 C 261.230469 153.632812 264.144531 152.488281 266.695312 153.558594 C 269.238281 154.632812 270.457031 157.519531 270.457031 157.519531 Z M 253.945312 154.785156 C 253.945312 154.785156 256.667969 153.234375 257.433594 150.578125 C 258.195312 147.921875 256.710938 145.160156 256.710938 145.160156 C 256.710938 145.160156 253.992188 146.714844 253.226562 149.367188 C 252.464844 152.027344 253.945312 154.785156 253.945312 154.785156 Z M 124.113281 149.164062 C 124.113281 149.164062 121.339844 147.710938 118.691406 148.496094 C 116.042969 149.285156 114.515625 152.023438 114.515625 152.023438 C 114.515625 152.023438 117.289062 153.476562 119.9375 152.691406 C 122.585938 151.902344 124.113281 149.164062 124.113281 149.164062 Z M 111.660156 142.421875 C 111.660156 142.421875 114.398438 143.949219 115.183594 146.597656 C 115.972656 149.246094 114.515625 152.023438 114.515625 152.023438 C 114.515625 152.023438 111.777344 150.496094 110.992188 147.847656 C 110.203125 145.199219 111.660156 142.421875 111.660156 142.421875 Z M 266.335938 147.929688 C 266.335938 147.929688 263.578125 149.410156 260.917969 148.648438 C 258.265625 147.882812 256.710938 145.160156 256.710938 145.160156 C 256.710938 145.160156 259.472656 143.679688 262.128906 144.445312 C 264.785156 145.207031 266.335938 147.929688 266.335938 147.929688 Z M 249.613281 147.164062 C 249.613281 147.164062 252.136719 145.304688 252.582031 142.578125 C 253.027344 139.851562 251.226562 137.285156 251.226562 137.285156 C 251.226562 137.285156 248.707031 139.144531 248.261719 141.871094 C 247.816406 144.597656 249.613281 147.164062 249.613281 147.164062 Z M 129.085938 141.949219 C 129.085938 141.949219 126.503906 140.175781 123.777344 140.644531 C 121.054688 141.117188 119.21875 143.652344 119.21875 143.652344 C 119.21875 143.652344 121.800781 145.425781 124.523438 144.957031 C 127.242188 144.488281 129.085938 141.949219 129.085938 141.949219 Z M 117.515625 133.785156 C 117.515625 133.785156 120.054688 135.621094 120.523438 138.347656 C 120.992188 141.070312 119.21875 143.652344 119.21875 143.652344 C 119.21875 143.652344 116.683594 141.8125 116.210938 139.085938 C 115.742188 136.367188 117.515625 133.785156 117.515625 133.785156 Z M 261.109375 138.894531 C 261.109375 138.894531 258.542969 140.691406 255.816406 140.246094 C 253.089844 139.800781 251.226562 137.285156 251.226562 137.285156 C 251.226562 137.285156 253.792969 135.484375 256.523438 135.929688 C 259.25 136.375 261.109375 138.894531 261.109375 138.894531 Z M 244.414062 140.109375 C 244.414062 140.109375 246.699219 137.964844 246.820312 135.203125 C 246.9375 132.441406 244.847656 130.109375 244.847656 130.109375 C 244.847656 130.109375 242.566406 132.253906 242.449219 135.015625 C 242.328125 137.773438 244.414062 140.109375 244.414062 140.109375 Z M 134.875 135.371094 C 134.875 135.371094 132.519531 133.304688 129.757812 133.449219 C 127 133.589844 124.875 135.894531 124.875 135.894531 C 124.875 135.894531 127.230469 137.960938 129.988281 137.816406 C 132.75 137.671875 134.875 135.371094 134.875 135.371094 Z M 124.351562 125.894531 C 124.351562 125.894531 126.652344 128.019531 126.796875 130.78125 C 126.941406 133.539062 124.875 135.894531 124.875 135.894531 C 124.875 135.894531 122.574219 133.769531 122.429688 131.011719 C 122.285156 128.25 124.351562 125.894531 124.351562 125.894531 Z M 238.421875 133.71875 C 238.421875 133.71875 240.433594 131.320312 240.222656 128.5625 C 240.019531 125.808594 237.667969 123.734375 237.667969 123.734375 C 237.667969 123.734375 235.65625 126.136719 235.863281 128.890625 C 236.070312 131.644531 238.421875 133.71875 238.421875 133.71875 Z M 254.855469 130.539062 C 254.855469 130.539062 252.519531 132.628906 249.757812 132.507812 C 246.996094 132.390625 244.847656 130.109375 244.847656 130.109375 C 244.847656 130.109375 247.183594 128.019531 249.945312 128.136719 C 252.707031 128.257812 254.855469 130.539062 254.855469 130.539062 Z M 141.398438 129.519531 C 141.398438 129.519531 139.308594 127.191406 136.550781 127.007812 C 133.792969 126.828125 131.410156 128.859375 131.410156 128.859375 C 131.410156 128.859375 133.503906 131.191406 136.257812 131.375 C 139.015625 131.554688 141.398438 129.519531 141.398438 129.519531 Z M 132.066406 118.871094 C 132.066406 118.871094 134.105469 121.253906 133.921875 124.011719 C 133.738281 126.765625 131.410156 128.859375 131.410156 128.859375 C 131.410156 128.859375 129.375 126.480469 129.554688 123.722656 C 129.738281 120.960938 132.066406 118.871094 132.066406 118.871094 Z M 231.710938 128.082031 C 231.710938 128.082031 233.425781 125.460938 232.894531 122.746094 C 232.363281 120.035156 229.785156 118.253906 229.785156 118.253906 C 229.785156 118.253906 228.070312 120.878906 228.601562 123.589844 C 229.132812 126.300781 231.710938 128.082031 231.710938 128.082031 Z M 148.570312 124.480469 C 148.570312 124.480469 146.765625 121.921875 144.050781 121.417969 C 141.335938 120.90625 138.730469 122.648438 138.730469 122.648438 C 138.730469 122.648438 140.53125 125.207031 143.246094 125.71875 C 145.964844 126.222656 148.570312 124.480469 148.570312 124.480469 Z M 247.652344 122.984375 C 247.652344 122.984375 245.582031 125.332031 242.824219 125.542969 C 240.070312 125.746094 237.667969 123.734375 237.667969 123.734375 C 237.667969 123.734375 239.742188 121.386719 242.496094 121.175781 C 245.25 120.972656 247.652344 122.984375 247.652344 122.984375 Z M 224.382812 123.273438 C 224.382812 123.273438 225.777344 120.46875 224.929688 117.839844 C 224.082031 115.207031 221.308594 113.746094 221.308594 113.746094 C 221.308594 113.746094 219.917969 116.550781 220.765625 119.179688 C 221.613281 121.808594 224.382812 123.273438 224.382812 123.273438 Z M 140.5625 112.804688 C 140.5625 112.804688 142.304688 115.410156 141.796875 118.125 C 141.289062 120.84375 138.730469 122.648438 138.730469 122.648438 C 138.730469 122.648438 136.988281 120.042969 137.496094 117.324219 C 138.003906 114.609375 140.5625 112.804688 140.5625 112.804688 Z M 156.285156 120.328125 C 156.285156 120.328125 154.796875 117.570312 152.160156 116.746094 C 149.523438 115.921875 146.730469 117.34375 146.730469 117.34375 C 146.730469 117.34375 148.21875 120.101562 150.855469 120.921875 C 153.492188 121.746094 156.285156 120.328125 156.285156 120.328125 Z M 239.613281 116.328125 C 239.613281 116.328125 237.832031 118.90625 235.117188 119.441406 C 232.40625 119.96875 229.785156 118.253906 229.785156 118.253906 C 229.785156 118.253906 231.566406 115.679688 234.277344 115.144531 C 236.988281 114.617188 239.613281 116.328125 239.613281 116.328125 Z M 216.539062 119.367188 C 216.539062 119.367188 217.589844 116.417969 216.4375 113.90625 C 215.285156 111.394531 212.363281 110.265625 212.363281 110.265625 C 212.363281 110.265625 211.308594 113.21875 212.460938 115.730469 C 213.617188 118.242188 216.539062 119.367188 216.539062 119.367188 Z M 164.4375 117.113281 C 164.4375 117.113281 163.285156 114.199219 160.765625 113.070312 C 158.242188 111.941406 155.300781 113.019531 155.300781 113.019531 C 155.300781 113.019531 156.457031 115.933594 158.976562 117.0625 C 161.496094 118.191406 164.4375 117.113281 164.4375 117.113281 Z M 149.714844 107.785156 C 149.714844 107.785156 151.132812 110.578125 150.3125 113.214844 C 149.484375 115.855469 146.730469 117.34375 146.730469 117.34375 C 146.730469 117.34375 145.3125 114.550781 146.136719 111.914062 C 146.957031 109.273438 149.714844 107.785156 149.714844 107.785156 Z M 208.285156 116.414062 C 208.285156 116.414062 208.980469 113.359375 207.542969 111.003906 C 206.101562 108.644531 203.066406 107.871094 203.066406 107.871094 C 203.066406 107.871094 202.371094 110.925781 203.808594 113.285156 C 205.25 115.640625 208.285156 116.414062 208.285156 116.414062 Z M 172.917969 114.882812 C 172.917969 114.882812 172.113281 111.851562 169.746094 110.433594 C 167.371094 109.015625 164.324219 109.738281 164.324219 109.738281 C 164.324219 109.738281 165.125 112.765625 167.496094 114.1875 C 169.867188 115.605469 172.917969 114.882812 172.917969 114.882812 Z M 230.839844 110.671875 C 230.839844 110.671875 229.378906 113.441406 226.746094 114.289062 C 224.117188 115.140625 221.308594 113.746094 221.308594 113.746094 C 221.308594 113.746094 222.773438 110.976562 225.402344 110.128906 C 228.035156 109.28125 230.839844 110.671875 230.839844 110.671875 Z M 199.746094 114.457031 C 199.746094 114.457031 200.074219 111.339844 198.367188 109.167969 C 196.65625 107 193.550781 106.585938 193.550781 106.585938 C 193.550781 106.585938 193.21875 109.703125 194.929688 111.875 C 196.636719 114.046875 199.746094 114.457031 199.746094 114.457031 Z M 181.59375 113.667969 C 181.59375 113.667969 181.15625 110.566406 178.96875 108.878906 C 176.785156 107.1875 173.671875 107.546875 173.671875 107.546875 C 173.671875 107.546875 174.109375 110.652344 176.296875 112.339844 C 178.480469 114.027344 181.59375 113.667969 181.59375 113.667969 Z M 191.03125 113.519531 C 191.03125 113.519531 190.992188 110.386719 189.039062 108.433594 C 187.085938 106.476562 183.949219 106.4375 183.949219 106.4375 C 183.949219 106.4375 183.988281 109.570312 185.945312 111.527344 C 187.898438 113.476562 191.03125 113.519531 191.03125 113.519531 Z M 159.394531 103.882812 C 159.394531 103.882812 160.472656 106.824219 159.34375 109.34375 C 158.214844 111.867188 155.300781 113.019531 155.300781 113.019531 C 155.300781 113.019531 154.222656 110.078125 155.355469 107.554688 C 156.484375 105.035156 159.394531 103.882812 159.394531 103.882812 Z M 221.464844 106.089844 C 221.464844 106.089844 220.335938 109.015625 217.824219 110.167969 C 215.3125 111.320312 212.363281 110.265625 212.363281 110.265625 C 212.363281 110.265625 213.488281 107.34375 216 106.191406 C 218.507812 105.039062 221.464844 106.089844 221.464844 106.089844 Z M 169.46875 101.148438 C 169.46875 101.148438 170.191406 104.195312 168.773438 106.570312 C 167.351562 108.9375 164.324219 109.738281 164.324219 109.738281 C 164.324219 109.738281 163.601562 106.691406 165.019531 104.320312 C 166.4375 101.949219 169.46875 101.148438 169.46875 101.148438 Z M 211.609375 102.648438 C 211.609375 102.648438 210.835938 105.683594 208.476562 107.125 C 206.121094 108.566406 203.066406 107.871094 203.066406 107.871094 C 203.066406 107.871094 203.835938 104.835938 206.195312 103.394531 C 208.550781 101.953125 211.609375 102.648438 211.609375 102.648438 Z M 179.796875 99.621094 C 179.796875 99.621094 180.152344 102.738281 178.464844 104.921875 C 176.773438 107.109375 173.671875 107.546875 173.671875 107.546875 C 173.671875 107.546875 173.3125 104.433594 175 102.25 C 176.691406 100.0625 179.796875 99.621094 179.796875 99.621094 Z M 201.417969 100.394531 C 201.417969 100.394531 201.007812 103.5 198.835938 105.210938 C 196.667969 106.917969 193.550781 106.585938 193.550781 106.585938 C 193.550781 106.585938 193.957031 103.480469 196.132812 101.773438 C 198.300781 100.066406 201.417969 100.394531 201.417969 100.394531 Z M 191.03125 99.359375 C 191.03125 99.359375 190.992188 102.492188 189.039062 104.445312 C 187.085938 106.398438 183.949219 106.4375 183.949219 106.4375 C 183.949219 106.4375 183.988281 103.304688 185.945312 101.355469 C 187.898438 99.398438 191.03125 99.359375 191.03125 99.359375 Z M 191.03125 99.359375 " fill-opacity="1" fill-rule="evenodd"/><g clip-path="url(#3ddbd24a5e)"><path fill="#ffedd7" d="M 175.683594 258.828125 C 151.730469 254.996094 130.027344 238.863281 120.320312 216.503906 C 109.660156 192.910156 112.929688 163.523438 129.164062 143.21875 C 141.867188 126.28125 162.203125 114.941406 183.570312 114.753906 C 202.121094 113.644531 220.765625 120.195312 234.5625 132.640625 C 250.640625 146.664062 259.65625 168.148438 258.871094 189.429688 C 258.761719 217.015625 240.816406 243.390625 215.265625 253.75 C 202.839844 259.390625 189.070312 259.835938 175.679688 258.832031 Z M 194.390625 257.140625 C 200.714844 259.402344 213.730469 250.105469 205.074219 245.800781 C 196.660156 243.375 187.90625 238.941406 179.117188 242.300781 C 173.671875 244.574219 157.585938 243.460938 164.222656 252.632812 C 170.109375 257.796875 178.652344 256.894531 185.945312 257.632812 C 188.769531 257.667969 191.59375 257.523438 194.394531 257.140625 Z M 212.402344 252.804688 C 223.730469 248.550781 233.933594 241.25 241.453125 231.75 C 234.714844 226.691406 229.441406 237.640625 223.875 240.347656 C 219.292969 244.5 207.101562 245.957031 209.519531 253.703125 C 210.570312 253.789062 211.507812 253.261719 212.402344 252.804688 Z M 161.648438 252.160156 C 160.898438 242.636719 148.597656 242.402344 143.765625 235.59375 C 139.832031 232.6875 132.949219 221.328125 129.441406 229.105469 C 137.601562 239.488281 148.179688 248.882812 161.164062 252.585938 L 161.472656 252.316406 L 161.652344 252.160156 Z M 216.078125 243.058594 C 222.980469 238.929688 232.132812 234.46875 233.886719 226 C 233.484375 218.011719 240.5625 205.609375 232.183594 200.566406 C 224.519531 200.078125 215.691406 192.683594 209.203125 199.820312 C 202.746094 206.496094 193.757812 210.328125 188.003906 217.703125 C 188.757812 224.691406 184.328125 235.21875 190.378906 239.65625 C 197.863281 241.554688 205.664062 246.222656 213.410156 244.449219 L 214.742188 243.832031 Z M 168.109375 243.339844 C 173.851562 240.332031 187.085938 242.964844 186.230469 234.1875 C 185.460938 226.851562 189.042969 216.683594 180.835938 212.726562 C 173.835938 207.214844 166.507812 202.148438 159.3125 196.902344 C 151.8125 197.929688 141.824219 198.710938 136.941406 204.59375 C 136.160156 212.074219 134.972656 220.699219 137.691406 227.753906 C 143.492188 234.101562 150.183594 240.136719 158.125 243.644531 C 161.40625 244.976562 164.835938 244.191406 168.109375 243.339844 Z M 243.394531 228.234375 C 249.875 221.5 252.476562 212.148438 255.542969 203.566406 C 257.921875 196.402344 255.179688 188.519531 250.558594 183.101562 C 245.4375 185.109375 244.140625 193.511719 240.660156 198.230469 C 236.367188 205.578125 238.101562 214.199219 235.789062 222.074219 C 234.601562 227.484375 238.488281 229.75 243.394531 228.234375 Z M 134.273438 224.289062 C 134.433594 215.90625 137.453125 206.210938 132.953125 198.703125 C 128.855469 193.933594 124.140625 178.777344 116.910156 187.769531 C 113.734375 197.054688 119.199219 206.542969 121.488281 215.464844 C 123.375 220.871094 127.816406 227.945312 134.273438 224.289062 Z M 190.011719 213.117188 C 197.429688 207.0625 205.328125 201.582031 212.289062 194.984375 C 210.929688 186.113281 206.761719 177.964844 205.035156 169.207031 C 201.265625 160.457031 190.6875 165.753906 183.582031 164.464844 C 176.777344 164.445312 168.480469 162.398438 167.699219 171.417969 C 164.933594 178.464844 162.632812 185.679688 160.054688 192.792969 C 162.855469 200.984375 172.664062 203.214844 178.464844 208.8125 C 181.574219 211.179688 185.808594 216.984375 190.011719 213.113281 Z M 140.023438 199.800781 C 146.503906 196.9375 157.035156 198.167969 159.347656 189.765625 C 162.523438 181.226562 165.683594 172.671875 168.300781 163.941406 C 163.410156 158.0625 159.960938 144.851562 151.097656 146.65625 C 143.757812 148.578125 133.804688 149.269531 130.816406 157.5 C 126.808594 164.839844 124.023438 172.996094 123.730469 181.40625 C 128.347656 187.480469 131.273438 198.410156 138.859375 200.085938 L 140.023438 199.796875 Z M 237.523438 199.863281 C 241.296875 192.257812 247.878906 184.832031 248.675781 176.445312 C 247.59375 168.449219 244.582031 160.734375 240.050781 154.066406 C 232.574219 152.570312 222.917969 143.128906 216.59375 149.015625 C 212.164062 155.679688 202.664062 162.074219 206.925781 170.953125 C 210.5 178.222656 210.109375 187.269531 215.488281 193.542969 C 220.8125 197.472656 228.019531 197.152344 234.085938 199.691406 C 235.214844 199.898438 236.375 199.992188 237.519531 199.863281 Z M 256.878906 188.035156 C 257.652344 174.164062 252.792969 160.523438 245.90625 148.722656 C 237.992188 150.742188 247.253906 161.335938 248.109375 166.542969 C 251.042969 173.472656 250.542969 183.527344 256.878906 188.035156 Z M 118.9375 184.1875 C 125.214844 177.558594 122.621094 167.148438 127.691406 159.75 C 130.042969 156.867188 135.4375 146.457031 129.207031 147.371094 C 123.253906 153.277344 120.46875 161.894531 118.054688 169.773438 C 117.820312 174.207031 113.609375 182.867188 117.292969 185.226562 L 118.21875 184.675781 Z M 203.285156 162.519531 C 207.378906 156.511719 217.59375 149.664062 215.277344 142.519531 C 209.636719 136.269531 205.808594 126.5 196.945312 124.550781 C 188.988281 124.277344 180.242188 122.488281 172.785156 125.945312 C 166.707031 130.847656 161.1875 137.570312 158.171875 144.742188 C 161.234375 151.433594 166.085938 159.851562 173.414062 162.886719 C 183.304688 162.472656 193.332031 163.007812 203.285156 162.519531 Z M 241.644531 148.75 C 243.945312 140.246094 234.082031 135.390625 228.914062 130.511719 C 222.953125 126.1875 216.453125 122.410156 209.289062 120.511719 C 199.589844 125.996094 212.667969 134.121094 215.410156 139.972656 C 221.542969 146.667969 231.175781 148.011719 239.230469 151.246094 C 240.628906 151.511719 241.746094 150.039062 241.644531 148.75 Z M 137.59375 148.65625 C 145.058594 145.625 155.050781 146.203125 159.578125 138.273438 C 162.253906 132.65625 174.707031 125.421875 167.078125 119.652344 C 160.550781 119.324219 154.964844 124.207031 149.292969 126.964844 C 143.101562 131.089844 136.695312 135.695312 132.664062 142.007812 C 131.65625 144.929688 133.488281 151.386719 137.59375 148.65625 Z M 203.972656 122.769531 C 207.863281 116.054688 194.566406 117.992188 190.613281 117.101562 C 184.699219 117.539062 173.078125 114.460938 171.484375 121.523438 C 177.3125 125.429688 184.929688 120.320312 191.539062 122.125 C 195.644531 122.53125 199.886719 124.1875 203.972656 122.769531 Z M 203.972656 122.769531 " fill-opacity="1" fill-rule="nonzero"/></g><g clip-path="url(#c7645ac3ea)"><g clip-path="url(#44544d9450)"><g clip-path="url(#9ff704b091)"><g clip-path="url(#13094c6686)"><g clip-path="url(#7625768d87)"><path fill="#ffedd7" d="M 212.804688 227.324219 C 207.574219 226.8125 202.90625 230.582031 202.398438 235.730469 C 201.894531 240.878906 205.738281 245.488281 210.972656 246 C 216.207031 246.515625 220.875 242.742188 221.378906 237.59375 C 221.886719 232.445312 218.039062 227.839844 212.804688 227.324219 Z M 203.542969 233.011719 C 203.535156 233.039062 203.523438 233.0625 203.511719 233.085938 C 203.523438 233.054688 203.535156 233.023438 203.546875 232.992188 Z M 203.421875 233.3125 C 203.359375 233.46875 203.304688 233.625 203.25 233.785156 C 203.234375 233.8125 203.226562 233.828125 203.207031 233.859375 C 203.269531 233.671875 203.347656 233.492188 203.421875 233.3125 Z M 202.878906 238.046875 C 202.886719 238.078125 202.890625 238.109375 202.894531 238.140625 C 202.890625 238.097656 202.875 238.0625 202.867188 238.019531 C 202.871094 238.027344 202.878906 238.035156 202.878906 238.046875 Z M 220.835938 238.410156 C 220.851562 238.320312 220.859375 238.230469 220.875 238.140625 C 220.882812 238.136719 220.890625 238.132812 220.898438 238.128906 C 220.882812 238.226562 220.855469 238.316406 220.835938 238.410156 Z M 220.363281 240.03125 C 220.371094 240.011719 220.378906 239.988281 220.386719 239.964844 C 220.378906 239.988281 220.371094 240.011719 220.363281 240.03125 Z M 220.632812 239.242188 C 220.6875 239.066406 220.730469 238.886719 220.769531 238.703125 C 220.730469 238.886719 220.6875 239.066406 220.632812 239.242188 Z M 220.960938 237.585938 C 220.960938 237.582031 220.960938 237.578125 220.960938 237.578125 C 221.019531 236.980469 221.015625 236.390625 220.960938 235.8125 C 221.019531 236.382812 221.035156 236.964844 220.976562 237.554688 C 220.976562 237.5625 220.976562 237.566406 220.976562 237.574219 C 220.96875 237.578125 220.964844 237.582031 220.960938 237.585938 Z M 220.671875 234.269531 C 220.703125 234.382812 220.730469 234.492188 220.757812 234.605469 C 220.730469 234.492188 220.703125 234.382812 220.671875 234.269531 Z M 220.855469 235.070312 C 220.894531 235.277344 220.925781 235.484375 220.949219 235.695312 C 220.925781 235.484375 220.890625 235.277344 220.855469 235.070312 " fill-opacity="1" fill-rule="nonzero"/></g></g></g></g></g><g clip-path="url(#7f1919f902)"><g clip-path="url(#73e4684111)"><g clip-path="url(#0e62dd7468)"><g clip-path="url(#54438a8ac6)"><g clip-path="url(#f9fd9086a3)"><path fill="#ffedd7" d="M 218.15625 172.109375 C 218.085938 171.273438 217.949219 170.230469 217.710938 168.875 C 217.472656 167.519531 216.953125 167.054688 217.042969 166.5625 C 217.132812 166.066406 217.144531 165.742188 216.917969 164.714844 C 216.691406 163.6875 215.894531 160.683594 215.4375 159.109375 C 214.980469 157.535156 214.574219 156.992188 214.726562 156.375 C 214.871094 155.753906 215.152344 155.128906 214.914062 154.46875 C 214.671875 153.8125 214.703125 153.050781 214.605469 152.257812 C 214.507812 151.460938 213.546875 147.238281 212.757812 146.394531 C 211.964844 145.550781 211.179688 144.644531 210.605469 144.285156 C 210.03125 143.921875 207.347656 141.429688 206.597656 140.832031 C 205.847656 140.234375 203.847656 138.355469 202.929688 137.914062 C 202.011719 137.476562 200.828125 136.660156 200.769531 136.570312 C 200.714844 136.476562 200.464844 136.101562 200.464844 136.101562 C 200.464844 136.101562 200.753906 135.167969 200.980469 134.839844 C 201.210938 134.515625 201.644531 133.683594 201.644531 133.683594 C 201.644531 133.683594 201.976562 133.824219 202.496094 133.417969 C 203.019531 133.011719 204.253906 131.800781 204.632812 130.832031 C 205.011719 129.863281 205.3125 128.5625 205.210938 128.269531 C 205.109375 127.972656 205.023438 127.726562 204.839844 127.816406 C 204.839844 127.816406 205.640625 126.125 205.988281 123.667969 C 206.339844 121.214844 205.285156 120.828125 204.621094 119.605469 C 203.953125 118.382812 202.980469 117.628906 202.527344 117.347656 C 202.074219 117.058594 200.109375 115.929688 197.851562 115.792969 C 195.59375 115.660156 194.085938 116.125 193.359375 116.402344 C 192.632812 116.679688 190.582031 118.203125 189.753906 120.195312 C 188.921875 122.191406 189.390625 122.324219 189.296875 123.296875 C 189.199219 124.269531 188.890625 124.984375 188.738281 125.207031 C 188.585938 125.433594 188.457031 125.8125 188.363281 127.246094 C 188.265625 128.679688 188.488281 129.289062 188.613281 129.5625 C 188.742188 129.839844 188.910156 130.335938 189.148438 130.140625 C 189.148438 130.140625 188.9375 131.84375 188.992188 132.394531 C 189.046875 132.949219 189.132812 133.632812 189.082031 134.132812 C 189.035156 134.628906 188.953125 135.015625 188.765625 135.128906 C 188.582031 135.238281 188.136719 135.546875 186.535156 135.605469 C 184.9375 135.667969 183.550781 136.207031 182.625 136.511719 C 181.699219 136.8125 181.03125 137.382812 178.839844 137.253906 C 176.644531 137.125 176.066406 137.222656 174.941406 138.007812 C 173.816406 138.789062 172.683594 139.445312 172.160156 140.089844 C 171.640625 140.738281 169.710938 143.039062 168.570312 145.070312 C 167.433594 147.097656 166.804688 149.699219 166.335938 150.460938 C 165.867188 151.222656 165.203125 150.894531 165.65625 152.054688 C 166.109375 153.214844 166.089844 153.1875 165.769531 153.574219 C 165.445312 153.957031 162.769531 155.636719 161.253906 159.070312 C 159.738281 162.503906 158.519531 165.792969 157.726562 166.9375 C 156.9375 168.082031 156.363281 169.03125 155.707031 169.511719 C 155.046875 169.992188 154.355469 169.90625 153.9375 170.367188 C 153.523438 170.828125 153.472656 171.105469 153.332031 171.246094 C 153.183594 171.382812 152.988281 171.386719 152.839844 171.765625 C 152.695312 172.144531 152.523438 172.542969 152.273438 172.667969 C 152.019531 172.796875 151.699219 173.179688 151.730469 173.511719 C 151.765625 173.84375 151.859375 174.222656 151.621094 174.550781 C 151.378906 174.875 151.371094 175.636719 151.480469 175.953125 C 151.589844 176.273438 151.652344 176.976562 151.65625 177.390625 C 151.660156 177.804688 151.882812 178.179688 152.527344 178.765625 C 153.164062 179.351562 154.003906 179.699219 154.265625 179.746094 C 154.519531 179.792969 155.332031 180.003906 155.539062 179.871094 C 155.75 179.738281 155.703125 179.539062 155.699219 179.382812 C 155.691406 179.230469 155.71875 178.707031 155.949219 178.578125 C 156.183594 178.449219 156.117188 178 156.335938 177.5625 C 156.335938 177.5625 156.457031 177.449219 157.214844 176.628906 C 157.96875 175.804688 158.0625 175.09375 158.105469 174.226562 C 158.148438 173.355469 158.003906 172.578125 158.628906 171.785156 C 159.25 170.996094 161.433594 168.132812 163 166.863281 C 164.566406 165.597656 165.660156 165.140625 167.382812 163.363281 C 169.109375 161.589844 169.5 160.710938 170.292969 159.542969 C 171.085938 158.378906 171.066406 158.132812 172.074219 157.207031 C 173.082031 156.277344 173.3125 155.691406 174.097656 155.722656 C 174.882812 155.757812 175.503906 154.53125 175.640625 155.808594 C 175.773438 157.089844 175.953125 158.417969 175.5 159.902344 C 175.046875 161.386719 174.945312 162.882812 174.097656 163.957031 C 173.246094 165.03125 172.007812 166.765625 171.449219 167.761719 C 170.894531 168.753906 170.613281 168.726562 170.304688 170.53125 C 169.996094 172.335938 169.757812 175.894531 169.316406 177.050781 C 168.875 178.210938 168.277344 179.394531 168.066406 181.296875 C 167.859375 183.199219 167.722656 185.5 167.820312 186.273438 C 167.917969 187.050781 167.703125 187.464844 168.171875 187.597656 C 168.636719 187.730469 168.703125 188.152344 168.640625 188.800781 C 168.578125 189.449219 168.621094 190.132812 169.386719 191.214844 C 170.15625 192.292969 170.078125 192.851562 170.375 193.625 C 170.667969 194.394531 171.289062 196.117188 171.355469 196.277344 C 171.429688 196.4375 171.59375 196.5625 171.507812 197.863281 C 171.425781 199.167969 171.101562 199.570312 171.472656 199.785156 C 171.84375 199.996094 172.953125 200.039062 172.992188 200.542969 C 173.03125 201.050781 173.285156 201.097656 172.75 202.113281 C 172.214844 203.132812 170.253906 206.171875 169.542969 207.214844 C 168.828125 208.257812 168.144531 208.980469 167.890625 210.023438 C 167.632812 211.070312 167.429688 212.011719 166.195312 212.785156 C 164.964844 213.558594 161.386719 215.28125 160.035156 217.707031 C 158.683594 220.128906 157.910156 220.902344 157.503906 221.476562 C 157.097656 222.046875 155.769531 223.992188 155.164062 224.152344 C 154.558594 224.308594 152.964844 226.316406 152.125 226.867188 C 151.285156 227.417969 150.402344 227.484375 149.710938 227.414062 C 149.019531 227.347656 146.28125 227.1875 145.746094 227.527344 C 145.210938 227.867188 143.699219 228.792969 143.847656 231.949219 C 143.996094 235.109375 145.042969 236.042969 144.34375 238.246094 C 143.648438 240.449219 142.378906 242.921875 142.886719 244.851562 C 143.398438 246.777344 144.710938 248.960938 146.277344 249.269531 C 147.839844 249.574219 149.253906 249.84375 149.820312 247.871094 C 150.386719 245.894531 151.132812 242.734375 151.238281 241.871094 C 151.347656 241.007812 151.503906 239.84375 151.703125 239.820312 C 151.902344 239.796875 152.640625 237.839844 152.578125 238.484375 C 152.515625 239.132812 152.542969 240.601562 153.457031 239.992188 C 154.367188 239.382812 154.03125 239.023438 153.84375 238.699219 C 153.65625 238.375 153.394531 237.957031 153.394531 237.957031 C 153.394531 237.957031 152.882812 237.839844 153.980469 237.992188 C 155.078125 238.140625 157.140625 237.820312 155.414062 237.824219 C 153.691406 237.832031 153.507812 237.460938 153.40625 237.382812 C 153.40625 237.382812 152.875 237.378906 153.914062 237.066406 C 154.953125 236.753906 155.183594 236.648438 154.828125 236.042969 C 154.46875 235.441406 154.015625 235.613281 153.882812 235.625 C 153.753906 235.632812 152.84375 235.5625 153.777344 234.71875 C 154.710938 233.871094 155.703125 233.355469 158.441406 231.046875 C 161.179688 228.738281 161.765625 228.554688 162.351562 228.132812 C 162.9375 227.710938 164.761719 226.074219 166.179688 225.210938 C 167.59375 224.347656 168.894531 223.117188 170.117188 221.796875 C 171.339844 220.476562 172.378906 219.878906 173.699219 218.917969 C 175.015625 217.953125 175.726562 217.585938 176.507812 215.894531 C 177.285156 214.203125 178.40625 212.78125 178.40625 212.78125 C 178.40625 212.78125 178.042969 215.847656 177.554688 217 C 177.070312 218.15625 177.167969 221.421875 177.726562 224.578125 C 178.292969 227.734375 178.671875 228.972656 178.65625 229.386719 C 178.636719 229.796875 180.195312 234.820312 180.578125 236.457031 C 180.964844 238.085938 181.679688 239.949219 181.53125 240.566406 C 181.382812 241.1875 181.636719 241.277344 181.628906 241.996094 C 181.625 242.71875 181.609375 242.910156 181.460938 243.726562 C 181.316406 244.542969 181.492188 245.871094 181.441406 246.804688 C 181.394531 247.738281 181.363281 250.75 181.753906 252.078125 C 182.148438 253.40625 182.382812 254.367188 183.921875 254.015625 C 185.464844 253.664062 190.03125 252.300781 190.375 251.265625 C 190.71875 250.226562 190.535156 249.183594 190.230469 248.300781 C 189.921875 247.417969 189.867188 246.429688 189.835938 245.839844 C 189.808594 245.246094 189.457031 244.597656 189.351562 244.109375 C 189.246094 243.617188 189.472656 243.117188 189.335938 242.730469 C 189.195312 242.347656 188.554688 241.5625 188.4375 241.199219 C 188.320312 240.839844 187.726562 239.539062 187.578125 239.042969 C 187.429688 238.546875 187.472656 237.65625 187.355469 237.316406 C 187.234375 236.976562 187.003906 236.867188 187.054688 236.152344 C 187.101562 235.433594 187.011719 235.46875 187.09375 234.625 C 187.179688 233.785156 187.304688 233.597656 187.148438 232.949219 C 186.996094 232.300781 187.089844 230.652344 187.054688 229.90625 C 187.019531 229.15625 187.292969 227.960938 187.175781 227.777344 C 187.066406 227.589844 187.007812 226.839844 187.1875 225.875 C 187.371094 224.914062 187.582031 222.09375 187.246094 220.183594 C 186.910156 218.269531 185.898438 216.992188 186.535156 215.871094 C 187.167969 214.757812 188.664062 210.1875 188.292969 207.964844 C 187.921875 205.746094 187.355469 204.640625 187.355469 204.640625 C 187.355469 204.640625 188.539062 203.445312 190.15625 201.007812 C 191.773438 198.566406 192.339844 197.464844 193.03125 197.09375 C 193.722656 196.726562 194.492188 196.234375 194.839844 195.59375 C 195.1875 194.949219 194.320312 192.898438 196.207031 192.558594 C 198.097656 192.21875 198.742188 192.699219 199.375 191.078125 C 200.007812 189.460938 200.507812 186.582031 200.742188 184.441406 C 200.972656 182.304688 200.695312 180.660156 200.933594 179.371094 C 201.167969 178.085938 200.980469 177.324219 201.828125 175.59375 C 202.675781 173.863281 202.730469 171.96875 203.015625 171.277344 C 203.304688 170.585938 203.589844 170.132812 204.140625 169.398438 C 204.691406 168.667969 204.921875 168.339844 205.003906 167.476562 C 205.089844 166.609375 205.71875 163.984375 205.84375 165.15625 C 205.96875 166.324219 205.914062 166.886719 206.238281 167.378906 C 206.5625 167.867188 206.660156 168.207031 206.679688 168.886719 C 206.699219 169.5625 206.238281 170.28125 207.046875 170.253906 C 207.859375 170.222656 208.226562 170.9375 209.089844 169.929688 C 209.953125 168.921875 210.34375 168.523438 210.34375 168.523438 C 210.34375 168.523438 211.667969 170.359375 211.46875 171.277344 C 211.269531 172.195312 210.414062 173.578125 210.1875 174.972656 C 209.964844 176.371094 209.71875 177.746094 209.089844 177.925781 C 208.460938 178.101562 207.566406 178.125 206.339844 178.375 C 205.113281 178.625 204.152344 179.054688 203.683594 179.621094 C 203.210938 180.183594 203.445312 180.253906 203.050781 180.714844 C 202.65625 181.179688 202.460938 181.835938 203.046875 181.875 C 203.632812 181.910156 204.0625 181.734375 204.0625 181.734375 C 204.0625 181.734375 205.042969 181.085938 204.464844 181.640625 C 203.886719 182.195312 203.988281 182.511719 204.085938 182.609375 C 204.1875 182.707031 204.460938 183.015625 204.484375 183.238281 C 204.507812 183.457031 204.144531 184.25 204.484375 184.589844 C 204.820312 184.929688 204.8125 184.777344 205 185.296875 C 205.191406 185.820312 205.101562 185.855469 205.640625 185.929688 C 206.175781 186.003906 207.242188 186.523438 207.851562 186.539062 C 208.460938 186.554688 210.269531 185.707031 210.964844 185.316406 C 211.660156 184.925781 212.144531 185.082031 212.207031 184.214844 C 212.269531 183.347656 212.230469 182.839844 212.839844 182.007812 C 213.445312 181.167969 213.804688 180.179688 214.375 179.46875 C 214.949219 178.761719 217.273438 176.019531 217.652344 175.050781 C 218.03125 174.085938 218.230469 172.945312 218.15625 172.109375 Z M 154.316406 177.652344 C 154.316406 177.652344 154.183594 177.683594 153.773438 177.425781 C 153.359375 177.167969 153.367188 176.621094 153.59375 176.554688 C 153.820312 176.492188 154.46875 176.53125 154.5 176.644531 C 154.535156 176.757812 154.316406 177.652344 154.316406 177.652344 Z M 153.558594 238.953125 C 153.96875 239.429688 153.363281 239.808594 152.96875 239.59375 C 152.574219 239.378906 152.933594 238.195312 152.933594 238.195312 C 152.933594 238.195312 153.144531 238.476562 153.558594 238.953125 " fill-opacity="1" fill-rule="nonzero"/></g></g></g></g></g><g clip-path="url(#f1857ba9bb)"><path fill="#ff821c" d="M 75.472656 127.867188 L 78.925781 135.636719 C 79.058594 135.933594 79.269531 136.191406 79.53125 136.382812 C 79.796875 136.574219 80.105469 136.695312 80.433594 136.726562 L 88.886719 137.613281 L 82.566406 143.300781 C 82.324219 143.515625 82.144531 143.796875 82.042969 144.105469 C 81.941406 144.417969 81.925781 144.75 81.992188 145.066406 L 83.761719 153.382812 L 76.402344 149.128906 C 76.121094 148.964844 75.800781 148.878906 75.472656 148.878906 C 75.144531 148.878906 74.824219 148.964844 74.542969 149.128906 L 67.183594 153.382812 L 68.953125 145.066406 C 69.023438 144.75 69.003906 144.417969 68.902344 144.105469 C 68.800781 143.796875 68.621094 143.515625 68.378906 143.300781 L 62.058594 137.613281 L 70.515625 136.726562 C 70.839844 136.695312 71.148438 136.574219 71.414062 136.382812 C 71.675781 136.191406 71.886719 135.933594 72.019531 135.636719 Z M 75.472656 127.867188 " fill-opacity="1" fill-rule="evenodd"/></g><g clip-path="url(#748c2aafad)"><path fill="#ff821c" d="M 62.058594 176.617188 L 65.511719 184.386719 C 65.644531 184.683594 65.851562 184.941406 66.117188 185.132812 C 66.382812 185.324219 66.691406 185.445312 67.015625 185.480469 L 75.46875 186.363281 L 69.152344 192.050781 C 68.910156 192.269531 68.726562 192.546875 68.625 192.855469 C 68.527344 193.167969 68.507812 193.5 68.578125 193.816406 L 70.347656 202.132812 L 62.988281 197.878906 C 62.703125 197.714844 62.382812 197.628906 62.058594 197.628906 C 61.730469 197.628906 61.410156 197.714844 61.128906 197.878906 L 53.765625 202.132812 L 55.539062 193.816406 C 55.605469 193.5 55.589844 193.167969 55.488281 192.855469 C 55.386719 192.546875 55.207031 192.269531 54.964844 192.050781 L 48.644531 186.363281 L 57.097656 185.480469 C 57.421875 185.445312 57.734375 185.324219 57.996094 185.132812 C 58.261719 184.941406 58.46875 184.683594 58.601562 184.386719 Z M 62.058594 176.617188 " fill-opacity="1" fill-rule="evenodd"/></g><g clip-path="url(#3ea5768798)"><path fill="#ff821c" d="M 299.519531 127.867188 L 302.972656 135.636719 C 303.105469 135.933594 303.316406 136.191406 303.578125 136.382812 C 303.84375 136.574219 304.152344 136.695312 304.476562 136.726562 L 312.933594 137.613281 L 306.613281 143.300781 C 306.371094 143.515625 306.191406 143.796875 306.089844 144.105469 C 305.988281 144.417969 305.96875 144.75 306.039062 145.066406 L 307.808594 153.382812 L 300.449219 149.128906 C 300.167969 148.964844 299.847656 148.878906 299.519531 148.878906 C 299.191406 148.878906 298.871094 148.964844 298.589844 149.128906 L 291.230469 153.382812 L 293 145.066406 C 293.066406 144.75 293.050781 144.417969 292.949219 144.105469 C 292.847656 143.796875 292.667969 143.515625 292.425781 143.300781 L 286.105469 137.613281 L 294.558594 136.726562 C 294.886719 136.695312 295.195312 136.574219 295.460938 136.382812 C 295.722656 136.191406 295.933594 135.933594 296.066406 135.636719 Z M 299.519531 127.867188 " fill-opacity="1" fill-rule="evenodd"/></g><g clip-path="url(#ddab181628)"><path fill="#ff821c" d="M 313.019531 176.617188 L 316.472656 184.386719 C 316.605469 184.683594 316.816406 184.941406 317.078125 185.132812 C 317.34375 185.324219 317.652344 185.445312 317.976562 185.480469 L 326.433594 186.363281 L 320.113281 192.050781 C 319.871094 192.269531 319.691406 192.546875 319.589844 192.855469 C 319.488281 193.167969 319.46875 193.5 319.539062 193.816406 L 321.308594 202.132812 L 313.949219 197.878906 C 313.667969 197.714844 313.347656 197.628906 313.019531 197.628906 C 312.691406 197.628906 312.371094 197.714844 312.089844 197.878906 L 304.730469 202.132812 L 306.5 193.816406 C 306.566406 193.5 306.550781 193.167969 306.449219 192.855469 C 306.347656 192.546875 306.167969 192.269531 305.925781 192.050781 L 299.605469 186.363281 L 308.058594 185.480469 C 308.386719 185.445312 308.695312 185.324219 308.960938 185.132812 C 309.222656 184.941406 309.433594 184.683594 309.566406 184.386719 Z M 313.019531 176.617188 " fill-opacity="1" fill-rule="evenodd"/></g><g fill="#ffffff" fill-opacity="1"><g transform="translate(126.155369, 94.337763)"><g/></g></g><g fill="#ffffff" fill-opacity="1"><g transform="translate(132.807149, 89.482382)"><g><path d="M -0.515625 -3.53125 L 1.171875 -4.859375 L -3.734375 -16.46875 C -3.953125 -16.988281 -4.132812 -17.316406 -4.28125 -17.453125 C -4.425781 -17.597656 -4.691406 -17.675781 -5.078125 -17.6875 L -6.640625 -17.875 L -7.78125 -20.78125 L 1.6875 -24.765625 L 3.140625 -21.765625 L 1.15625 -20.203125 L 3.015625 -15.78125 L 9.84375 -18.890625 L 8.65625 -21.703125 C 8.4375 -22.222656 8.25 -22.550781 8.09375 -22.6875 C 7.945312 -22.820312 7.664062 -22.890625 7.25 -22.890625 L 5.421875 -23.109375 L 4.421875 -25.921875 L 13.71875 -29.859375 L 15.1875 -26.734375 L 13.546875 -25.4375 L 18.53125 -13.609375 C 18.738281 -13.128906 18.90625 -12.832031 19.03125 -12.71875 C 19.164062 -12.601562 19.40625 -12.535156 19.75 -12.515625 L 21.3125 -12.328125 L 22.375 -9.4375 L 13.15625 -5.546875 L 11.6875 -8.609375 L 13.5625 -10.09375 L 11.65625 -14.609375 L 4.625 -11.984375 L 6.140625 -8.375 C 6.347656 -7.894531 6.515625 -7.597656 6.640625 -7.484375 C 6.765625 -7.367188 7.007812 -7.304688 7.375 -7.296875 L 9.40625 -7.046875 L 10.359375 -4.375 L 0.96875 -0.40625 Z M -0.515625 -3.53125 "/></g></g></g><g fill="#ffffff" fill-opacity="1"><g transform="translate(156.734139, 79.576487)"><g><path d="M 0.015625 -2.96875 L 0.921875 -3.765625 L 5.265625 -23.484375 L 10.703125 -24.921875 L 20.234375 -8.5625 C 20.554688 -8.039062 20.773438 -7.703125 20.890625 -7.546875 C 21.015625 -7.390625 21.21875 -7.179688 21.5 -6.921875 L 22.21875 -6.28125 L 22.421875 -3.9375 L 13.328125 -2.34375 L 12.453125 -5.359375 L 14.65625 -6.34375 L 13.046875 -9.4375 L 6.46875 -8.171875 L 6.125 -6.015625 C 6.082031 -5.816406 6.078125 -5.648438 6.109375 -5.515625 C 6.128906 -5.359375 6.175781 -5.25 6.25 -5.1875 C 6.320312 -5.125 6.425781 -5.078125 6.5625 -5.046875 L 8.96875 -4.5 L 9.140625 -1.609375 L 0.640625 -0.109375 Z M 8.15625 -18.78125 L 7.109375 -12.1875 L 11.328125 -12.71875 Z M 8.15625 -18.78125 "/></g></g></g><g fill="#ffffff" fill-opacity="1"><g transform="translate(180.564558, 75.414192)"><g><path d="M 7.4375 -13.671875 L 7.5625 -5.03125 C 7.5625 -4.53125 7.597656 -4.195312 7.671875 -4.03125 C 7.742188 -3.875 7.929688 -3.703125 8.234375 -3.515625 L 9.890625 -2.28125 L 9.625 0.484375 L 1.078125 0.046875 L 1.09375 -3.546875 L 2.90625 -3.875 L 3.671875 -16.828125 C 3.691406 -17.242188 3.671875 -17.53125 3.609375 -17.6875 C 3.546875 -17.84375 3.398438 -18.023438 3.171875 -18.234375 L 2 -19.203125 L 2.390625 -22.078125 L 9.1875 -21.734375 L 18.484375 -8.53125 L 18.390625 -15.890625 C 18.390625 -16.421875 18.347656 -16.765625 18.265625 -16.921875 C 18.191406 -17.078125 18.003906 -17.253906 17.703125 -17.453125 L 16.0625 -18.640625 L 16.296875 -21.390625 L 24.765625 -20.96875 L 24.734375 -17.609375 L 23.015625 -16.984375 L 22 0.796875 L 18.171875 1.859375 Z M 7.4375 -13.671875 "/></g></g></g><g fill="#ffffff" fill-opacity="1"><g transform="translate(205.865666, 76.780157)"><g><path d="M 7.609375 2.265625 C 5.316406 1.609375 3.242188 0.910156 1.390625 0.171875 L 2.09375 -2.90625 L 4.578125 -2.875 L 8 -14.9375 C 8.15625 -15.488281 8.21875 -15.863281 8.1875 -16.0625 C 8.15625 -16.257812 7.976562 -16.488281 7.65625 -16.75 L 6.25 -18.125 L 7.203125 -20.703125 C 9.453125 -20.242188 11.335938 -19.847656 12.859375 -19.515625 C 14.378906 -19.191406 15.597656 -18.898438 16.515625 -18.640625 C 19.421875 -17.816406 21.65625 -16.816406 23.21875 -15.640625 C 24.789062 -14.472656 25.773438 -13.046875 26.171875 -11.359375 C 26.578125 -9.671875 26.4375 -7.625 25.75 -5.21875 C 24.894531 -2.175781 23.503906 0.0859375 21.578125 1.578125 C 19.867188 2.835938 17.894531 3.488281 15.65625 3.53125 C 13.425781 3.570312 10.742188 3.148438 7.609375 2.265625 Z M 12.875 -1.140625 C 14.644531 -0.640625 16.109375 -0.453125 17.265625 -0.578125 C 17.597656 -1.054688 18.003906 -1.832031 18.484375 -2.90625 C 18.960938 -3.976562 19.34375 -5 19.625 -5.96875 C 20.300781 -8.351562 20.3125 -10.25 19.65625 -11.65625 C 19 -13.070312 17.664062 -14.066406 15.65625 -14.640625 C 15.375 -14.710938 15.113281 -14.773438 14.875 -14.828125 C 14.632812 -14.878906 14.410156 -14.925781 14.203125 -14.96875 L 10.515625 -1.96875 C 11.328125 -1.632812 12.113281 -1.359375 12.875 -1.140625 Z M 12.875 -1.140625 "/></g></g></g><g fill="#ffffff" fill-opacity="1"><g transform="translate(229.855122, 83.788984)"><g><path d="M 6.15625 -0.34375 L 9.03125 0.296875 L 11.078125 -3.53125 L 10.34375 -14.875 L 9.90625 -17.25 L 11.09375 -19.203125 L 19.578125 -14.640625 L 18.40625 -11.734375 L 16.234375 -12.234375 L 16.53125 -5.4375 L 21.328125 -8.34375 C 21.472656 -8.4375 21.582031 -8.554688 21.65625 -8.703125 C 21.769531 -8.910156 21.738281 -9.125 21.5625 -9.34375 L 20.296875 -10.984375 L 21.859375 -13.421875 L 29.15625 -9.515625 L 27.90625 -6.6875 L 26.375 -6.609375 L 16.828125 -1.640625 L 14.890625 1.953125 C 14.648438 2.410156 14.523438 2.722656 14.515625 2.890625 C 14.503906 3.066406 14.597656 3.296875 14.796875 3.578125 L 16.015625 5.625 L 14.671875 7.875 L 4.78125 2.5625 Z M 6.15625 -0.34375 "/></g></g></g><g fill="#ffffff" fill-opacity="1"><g transform="translate(80.563905, 263.411739)"><g><path d="M 4.453125 6.28125 C 3.066406 4.507812 1.9375 2.5 1.0625 0.25 C 2.707031 -0.914062 4.28125 -1.945312 5.78125 -2.84375 L 7.609375 -1.28125 L 6.5 1.53125 C 6.925781 2.769531 7.429688 3.757812 8.015625 4.5 C 8.210938 4.75 8.710938 5.234375 9.515625 5.953125 C 9.867188 5.734375 10.101562 5.578125 10.21875 5.484375 C 10.59375 5.179688 10.828125 4.882812 10.921875 4.59375 C 11.023438 4.300781 11.03125 3.84375 10.9375 3.21875 C 10.851562 2.601562 10.613281 1.539062 10.21875 0.03125 C 9.8125 -1.894531 9.753906 -3.46875 10.046875 -4.6875 C 10.347656 -5.90625 11.023438 -6.929688 12.078125 -7.765625 C 13.734375 -9.066406 15.46875 -9.519531 17.28125 -9.125 C 19.09375 -8.738281 20.769531 -7.566406 22.3125 -5.609375 C 23.0625 -4.660156 23.710938 -3.644531 24.265625 -2.5625 C 24.816406 -1.488281 25.207031 -0.46875 25.4375 0.5 C 24.519531 1.175781 23.347656 1.976562 21.921875 2.90625 L 20.828125 3.65625 L 19.203125 2.09375 L 20.09375 -1.5625 C 19.8125 -2.269531 19.332031 -3.054688 18.65625 -3.921875 C 18.21875 -4.472656 17.84375 -4.847656 17.53125 -5.046875 C 17.15625 -4.867188 16.878906 -4.710938 16.703125 -4.578125 C 16.347656 -4.296875 16.101562 -3.960938 15.96875 -3.578125 C 15.84375 -3.203125 15.816406 -2.675781 15.890625 -2 C 15.960938 -1.320312 16.140625 -0.378906 16.421875 0.828125 C 16.828125 2.578125 17.050781 3.96875 17.09375 5 C 17.144531 6.03125 17.023438 6.875 16.734375 7.53125 C 16.441406 8.195312 15.9375 8.8125 15.21875 9.375 C 13.625 10.625 11.867188 10.972656 9.953125 10.421875 C 8.046875 9.878906 6.210938 8.5 4.453125 6.28125 Z M 4.453125 6.28125 "/></g></g></g><g fill="#ffffff" fill-opacity="1"><g transform="translate(94.39625, 280.627144)"><g><path d="M 7.890625 7.40625 C 5.335938 5.1875 3.992188 2.882812 3.859375 0.5 C 3.734375 -1.875 4.816406 -4.378906 7.109375 -7.015625 C 8.585938 -8.722656 10.1875 -9.925781 11.90625 -10.625 C 13.632812 -11.320312 15.378906 -11.503906 17.140625 -11.171875 C 18.898438 -10.835938 20.585938 -9.96875 22.203125 -8.5625 C 27.347656 -4.09375 27.640625 0.765625 23.078125 6.015625 C 21.566406 7.742188 19.953125 8.957031 18.234375 9.65625 C 16.523438 10.363281 14.785156 10.523438 13.015625 10.140625 C 11.253906 9.753906 9.546875 8.84375 7.890625 7.40625 Z M 11.15625 4.671875 C 12.03125 5.429688 13.066406 5.9375 14.265625 6.1875 C 14.835938 5.851562 15.484375 5.363281 16.203125 4.71875 C 16.921875 4.082031 17.582031 3.421875 18.1875 2.734375 C 19.664062 1.023438 20.46875 -0.539062 20.59375 -1.96875 C 20.71875 -3.40625 20.164062 -4.660156 18.9375 -5.734375 C 18.050781 -6.492188 17.054688 -7.070312 15.953125 -7.46875 C 15.535156 -7.3125 14.988281 -6.9375 14.3125 -6.34375 C 13.644531 -5.757812 12.9375 -5.035156 12.1875 -4.171875 C 10.632812 -2.390625 9.765625 -0.738281 9.578125 0.78125 C 9.390625 2.300781 9.914062 3.597656 11.15625 4.671875 Z M 11.15625 4.671875 "/></g></g></g><g fill="#ffffff" fill-opacity="1"><g transform="translate(114.984371, 297.742608)"><g><path d="M 8.84375 5.5625 C 6.15625 4.019531 4.550781 2.015625 4.03125 -0.453125 C 3.519531 -2.929688 4.125 -5.675781 5.84375 -8.6875 C 6.925781 -10.613281 8.210938 -12.070312 9.703125 -13.0625 C 11.191406 -14.050781 12.8125 -14.535156 14.5625 -14.515625 C 16.320312 -14.492188 18.109375 -13.960938 19.921875 -12.921875 C 22.003906 -11.734375 23.875 -10.050781 25.53125 -7.875 C 24.46875 -6.363281 23.210938 -4.738281 21.765625 -3 L 19.65625 -4.015625 L 19.359375 -7.75 C 18.703125 -8.4375 17.90625 -9.046875 16.96875 -9.578125 C 16.25 -9.984375 15.539062 -10.304688 14.84375 -10.546875 C 14.238281 -10.148438 13.585938 -9.550781 12.890625 -8.75 C 12.203125 -7.945312 11.597656 -7.082031 11.078125 -6.15625 C 9.960938 -4.195312 9.492188 -2.535156 9.671875 -1.171875 C 9.847656 0.191406 10.703125 1.328125 12.234375 2.234375 C 12.859375 2.585938 13.695312 2.941406 14.75 3.296875 C 15.800781 3.660156 16.867188 3.945312 17.953125 4.15625 L 17.109375 7.5625 C 15.835938 7.632812 14.441406 7.488281 12.921875 7.125 C 11.410156 6.757812 10.050781 6.238281 8.84375 5.5625 Z M 8.84375 5.5625 "/></g></g></g><g fill="#ffffff" fill-opacity="1"><g transform="translate(136.277284, 309.370868)"><g><path d="M 9.734375 3.796875 C 6.796875 2.796875 4.84375 1.128906 3.875 -1.203125 C 2.90625 -3.535156 2.976562 -6.34375 4.09375 -9.625 C 4.8125 -11.71875 5.8125 -13.390625 7.09375 -14.640625 C 8.382812 -15.890625 9.890625 -16.664062 11.609375 -16.96875 C 13.328125 -17.28125 15.175781 -17.09375 17.15625 -16.40625 C 19.425781 -15.632812 21.582031 -14.332031 23.625 -12.5 C 22.863281 -10.8125 21.925781 -8.984375 20.8125 -7.015625 L 18.5625 -7.609375 L 17.5625 -11.234375 C 16.800781 -11.773438 15.910156 -12.21875 14.890625 -12.5625 C 14.117188 -12.832031 13.359375 -13.019531 12.609375 -13.125 C 12.085938 -12.625 11.5625 -11.914062 11.03125 -11 C 10.507812 -10.082031 10.078125 -9.125 9.734375 -8.125 C 8.992188 -5.976562 8.835938 -4.253906 9.265625 -2.953125 C 9.703125 -1.648438 10.757812 -0.691406 12.4375 -0.078125 C 13.125 0.148438 14.015625 0.335938 15.109375 0.484375 C 16.210938 0.640625 17.3125 0.722656 18.40625 0.734375 L 18.21875 4.25 C 16.988281 4.550781 15.59375 4.664062 14.03125 4.59375 C 12.476562 4.519531 11.046875 4.253906 9.734375 3.796875 Z M 9.734375 3.796875 "/></g></g></g><g fill="#ffffff" fill-opacity="1"><g transform="translate(159.344597, 316.796046)"><g><path d="M 1.265625 -2.96875 L 3.578125 -3.25 L 5.265625 -14.859375 C 5.335938 -15.378906 5.34375 -15.734375 5.28125 -15.921875 C 5.226562 -16.109375 5.039062 -16.296875 4.71875 -16.484375 L 3.328125 -17.578125 L 3.828125 -20.28125 L 20.28125 -17.875 C 20.101562 -15.738281 19.867188 -13.660156 19.578125 -11.640625 L 17.3125 -11.8125 L 15.546875 -14.796875 L 10.984375 -15.59375 L 10.265625 -10.65625 L 16.8125 -10.265625 L 16.140625 -5.59375 L 9.765625 -7.234375 L 9.0625 -2.359375 L 14.125 -1.703125 L 16.8125 -4.03125 L 19.046875 -3.578125 C 18.660156 -1.460938 18.207031 0.585938 17.6875 2.578125 L 0.96875 0.140625 Z M 1.265625 -2.96875 "/></g></g></g><g fill="#ffffff" fill-opacity="1"><g transform="translate(182.815045, 319.857302)"><g><path d="M 0.984375 -3.171875 L 3.1875 -3.875 L 2.6875 -15.515625 C 2.65625 -16.046875 2.597656 -16.398438 2.515625 -16.578125 C 2.429688 -16.753906 2.210938 -16.898438 1.859375 -17.015625 L 0.234375 -17.84375 L 0.296875 -20.359375 C 3.335938 -20.941406 6.273438 -21.296875 9.109375 -21.421875 C 11.304688 -21.523438 13.085938 -21.382812 14.453125 -21 C 15.828125 -20.625 16.84375 -19.984375 17.5 -19.078125 C 18.15625 -18.171875 18.519531 -16.953125 18.59375 -15.421875 C 18.644531 -14.160156 18.363281 -13.039062 17.75 -12.0625 C 17.144531 -11.09375 16.25 -10.328125 15.0625 -9.765625 L 20.328125 -2.078125 L 20.34375 -0.890625 L 14.765625 -0.65625 L 9.875 -8.609375 L 8.53125 -8.578125 L 8.6875 -5.171875 C 8.707031 -4.679688 8.753906 -4.367188 8.828125 -4.234375 C 8.910156 -4.109375 9.09375 -3.96875 9.375 -3.8125 L 10.734375 -3.109375 L 10.734375 -0.46875 L 1.28125 -0.0625 Z M 10.328125 -12.09375 C 11.410156 -12.132812 12.203125 -12.269531 12.703125 -12.5 C 12.878906 -13.25 12.945312 -14.128906 12.90625 -15.140625 C 12.863281 -16.160156 12.613281 -16.875 12.15625 -17.28125 C 11.695312 -17.695312 10.957031 -17.882812 9.9375 -17.84375 C 9.363281 -17.820312 8.78125 -17.765625 8.1875 -17.671875 L 8.4375 -12.1875 C 8.96875 -12.082031 9.597656 -12.050781 10.328125 -12.09375 Z M 10.328125 -12.09375 "/></g></g></g><g fill="#ffffff" fill-opacity="1"><g transform="translate(207.412534, 318.014014)"><g/></g></g><g fill="#ffffff" fill-opacity="1"><g transform="translate(217.630747, 316.334502)"><g><path d="M 10.078125 -2.765625 C 7.117188 -1.804688 4.550781 -1.972656 2.375 -3.265625 C 0.207031 -4.566406 -1.40625 -6.867188 -2.46875 -10.171875 C -3.144531 -12.273438 -3.34375 -14.207031 -3.0625 -15.96875 C -2.789062 -17.738281 -2.054688 -19.265625 -0.859375 -20.546875 C 0.335938 -21.828125 1.929688 -22.785156 3.921875 -23.421875 C 6.203125 -24.160156 8.710938 -24.398438 11.453125 -24.140625 C 11.847656 -22.335938 12.191406 -20.316406 12.484375 -18.078125 L 10.328125 -17.203125 L 7.359375 -19.515625 C 6.410156 -19.492188 5.425781 -19.316406 4.40625 -18.984375 C 3.625 -18.734375 2.910156 -18.425781 2.265625 -18.0625 C 2.140625 -17.351562 2.140625 -16.472656 2.265625 -15.421875 C 2.390625 -14.367188 2.617188 -13.335938 2.953125 -12.328125 C 3.640625 -10.171875 4.546875 -8.695312 5.671875 -7.90625 C 6.796875 -7.125 8.210938 -6.988281 9.921875 -7.5 C 10.609375 -7.71875 11.4375 -8.097656 12.40625 -8.640625 C 13.375 -9.179688 14.304688 -9.773438 15.203125 -10.421875 L 17.140625 -7.5 C 16.335938 -6.519531 15.285156 -5.585938 13.984375 -4.703125 C 12.691406 -3.828125 11.390625 -3.179688 10.078125 -2.765625 Z M 10.078125 -2.765625 "/></g></g></g><g fill="#ffffff" fill-opacity="1"><g transform="translate(240.70834, 308.534501)"><g><path d="M -0.90625 -2.609375 L -0.359375 -3.59375 L -2.53125 -22.21875 L 1.796875 -25.171875 L 15.171875 -13.703125 C 15.617188 -13.335938 15.914062 -13.101562 16.0625 -13 C 16.21875 -12.894531 16.460938 -12.773438 16.796875 -12.640625 L 17.609375 -12.28125 L 18.515625 -10.296875 L 10.984375 -6.109375 L 9.328125 -8.515625 L 10.953125 -10.046875 L 8.578125 -12.265625 L 3.1875 -9.171875 L 3.546875 -7.15625 C 3.585938 -6.96875 3.632812 -6.820312 3.6875 -6.71875 C 3.757812 -6.59375 3.832031 -6.507812 3.90625 -6.46875 C 3.988281 -6.4375 4.097656 -6.425781 4.234375 -6.4375 L 6.5 -6.6875 L 7.53125 -4.1875 L 0.53125 -0.296875 Z M 1.453125 -19 L 2.53125 -12.875 L 6.078125 -14.640625 Z M 1.453125 -19 "/></g></g></g><g fill="#ffffff" fill-opacity="1"><g transform="translate(263.601604, 295.187948)"><g><path d="M -1.171875 -3.109375 L 0.125 -5.03125 L -7.46875 -13.875 C -7.8125 -14.28125 -8.066406 -14.523438 -8.234375 -14.609375 C -8.410156 -14.691406 -8.671875 -14.675781 -9.015625 -14.5625 L -10.8125 -14.1875 L -12.3125 -16.203125 C -10.28125 -18.546875 -8.1875 -20.640625 -6.03125 -22.484375 C -4.351562 -23.910156 -2.863281 -24.894531 -1.5625 -25.4375 C -0.257812 -25.988281 0.929688 -26.109375 2.015625 -25.796875 C 3.097656 -25.492188 4.140625 -24.757812 5.140625 -23.59375 C 5.953125 -22.644531 6.421875 -21.597656 6.546875 -20.453125 C 6.671875 -19.304688 6.4375 -18.148438 5.84375 -16.984375 L 14.71875 -14.171875 L 15.46875 -13.234375 L 11.234375 -9.609375 L 2.46875 -12.875 L 1.4375 -12.03125 L 3.65625 -9.421875 C 3.976562 -9.054688 4.207031 -8.84375 4.34375 -8.78125 C 4.488281 -8.726562 4.722656 -8.726562 5.046875 -8.78125 L 6.546875 -9.0625 L 8.171875 -6.984375 L 0.96875 -0.828125 Z M 0.6875 -15.890625 C 1.507812 -16.597656 2.046875 -17.195312 2.296875 -17.6875 C 1.972656 -18.382812 1.484375 -19.117188 0.828125 -19.890625 C 0.160156 -20.660156 -0.472656 -21.066406 -1.078125 -21.109375 C -1.691406 -21.148438 -2.390625 -20.835938 -3.171875 -20.171875 C -3.609375 -19.796875 -4.03125 -19.394531 -4.4375 -18.96875 L -0.875 -14.796875 C -0.382812 -15.054688 0.132812 -15.421875 0.6875 -15.890625 Z M 0.6875 -15.890625 "/></g></g></g><g fill="#ffffff" fill-opacity="1"><g transform="translate(282.423004, 278.403285)"><g><path d="M -1.921875 -2.59375 L -1.015625 -4.71875 L -10.171875 -12.03125 C -10.585938 -12.363281 -10.890625 -12.550781 -11.078125 -12.59375 C -11.265625 -12.644531 -11.519531 -12.578125 -11.84375 -12.390625 L -13.484375 -11.75 L -15.59375 -13.53125 L -5.21875 -26.53125 C -3.457031 -25.3125 -1.78125 -24.0625 -0.1875 -22.78125 L -1.46875 -20.90625 L -4.9375 -20.890625 L -7.921875 -17.34375 L -4.03125 -14.234375 L -0.375 -19.6875 L 3.3125 -16.75 L -1.328125 -12.078125 L 2.53125 -9 L 5.640625 -13.046875 L 5 -16.546875 L 6.53125 -18.25 C 8.15625 -16.84375 9.695312 -15.414062 11.15625 -13.96875 L 0.609375 -0.765625 Z M -1.921875 -2.59375 "/></g></g></g></svg>